<?xml version="1.0" standalone="no"?>
<!DOCTYPE svg PUBLIC "-//W3C//DTD SVG 20010904//EN"
 "http://www.w3.org/TR/2001/REC-SVG-20010904/DTD/svg10.dtd">
<svg version="1.0" xmlns="http://www.w3.org/2000/svg"
 width="1280.000000pt" height="1183.000000pt" viewBox="0 0 1280.000000 1183.000000"
 preserveAspectRatio="xMidYMid meet">
<metadata>
Created by potrace 1.15, written by Peter Selinger 2001-2017
</metadata>
<g transform="translate(0.000000,1183.000000) scale(0.100000,-0.100000)"
fill="#000000" stroke="none">
<path d="M5586 11773 c-41 -129 -93 -195 -185 -235 -34 -14 -58 -18 -91 -13
-97 13 -399 17 -469 6 -69 -11 -214 -56 -262 -82 -13 -7 -41 -26 -61 -42 -32
-25 -52 -32 -133 -42 -74 -10 -113 -21 -170 -49 -139 -69 -252 -214 -285 -368
-16 -71 -26 -89 -40 -68 -5 8 -10 25 -10 38 0 52 -52 8 -86 -73 -8 -21 -18
-75 -21 -121 -3 -46 -10 -84 -15 -84 -21 0 -78 30 -112 60 -38 34 -68 83 -80
133 -9 39 -24 33 -48 -20 -56 -127 -43 -298 34 -445 22 -43 38 -82 34 -85 -6
-6 -75 66 -76 80 0 4 -5 7 -11 7 -12 0 -9 -53 7 -127 9 -44 -4 -43 -102 6 -43
22 -81 38 -83 35 -12 -11 38 -81 91 -128 72 -63 76 -83 12 -56 -25 11 -50 20
-56 20 -6 0 29 -42 78 -92 80 -83 126 -150 112 -164 -3 -2 -33 11 -68 31 -34
19 -66 33 -70 30 -10 -6 48 -153 97 -248 24 -46 52 -81 87 -109 80 -65 126
-111 126 -125 0 -26 -42 -31 -88 -11 -27 12 -83 23 -145 28 -97 8 -218 42
-228 64 -2 4 28 18 66 31 87 29 67 31 -49 5 -114 -25 -141 -25 -167 1 -22 22
-17 34 16 42 11 3 -1 5 -26 6 -37 1 -49 6 -66 29 -13 18 -53 43 -107 67 -85
38 -86 39 -81 69 4 17 7 67 8 111 1 65 -4 91 -24 139 -59 142 -202 168 -261
48 -20 -40 -23 -62 -23 -152 1 -58 5 -138 9 -177 12 -98 2 -100 -113 -22 -50
34 -94 60 -97 57 -6 -6 70 -70 137 -116 122 -83 32 -94 -124 -15 -38 19 -71
32 -74 29 -7 -7 149 -96 168 -96 21 0 66 -36 57 -45 -4 -4 -35 4 -70 18 -91
37 -137 44 -73 12 27 -13 70 -33 96 -43 l46 -20 6 -118 c8 -144 25 -212 80
-323 49 -99 110 -166 215 -234 72 -47 73 -49 126 -160 54 -111 115 -197 141
-197 10 0 12 29 7 145 l-5 145 23 0 c51 0 140 -33 179 -67 33 -28 44 -47 61
-106 44 -151 122 -317 150 -317 19 0 29 46 36 171 7 125 15 159 37 159 32 0
89 -23 94 -38 31 -82 139 -202 183 -202 21 0 40 63 41 142 2 83 10 103 46 106
28 3 32 0 43 -35 32 -100 97 -190 121 -166 13 13 37 116 45 193 3 39 10 73 14
75 4 3 20 -12 36 -33 58 -77 93 -83 124 -22 23 46 39 55 76 46 29 -8 28 -29
-2 -35 -38 -7 -46 -22 -39 -76 8 -64 -7 -81 -61 -72 -54 9 -69 -4 -88 -77
l-18 -66 -53 6 c-48 6 -54 4 -68 -17 -9 -13 -21 -53 -27 -89 -23 -131 -24
-135 -42 -134 -10 0 -40 1 -66 2 -33 1 -57 9 -72 22 -13 11 -28 19 -34 17 -6
-2 -23 -35 -38 -72 -14 -38 -30 -71 -35 -72 -4 -2 -29 34 -54 79 -25 45 -51
84 -57 86 -7 2 -27 -28 -48 -72 -19 -42 -37 -76 -40 -76 -3 0 -15 5 -26 11
-29 16 -112 13 -147 -6 -45 -23 -65 -68 -64 -146 0 -108 55 -196 177 -286 l61
-45 -40 7 c-111 19 -166 91 -240 315 -21 63 -46 126 -57 139 -12 16 -17 33
-13 51 7 33 -36 183 -75 261 -17 33 -47 78 -67 100 -54 59 -240 179 -388 250
-88 42 -156 83 -210 127 -96 77 -164 112 -223 112 -92 0 -176 -76 -195 -177
-17 -86 64 -292 160 -412 68 -85 122 -130 258 -211 49 -30 108 -73 131 -95 42
-42 90 -131 96 -175 3 -22 -1 -25 -24 -23 -16 1 -55 19 -88 39 l-61 37 -27
-20 c-50 -37 -38 -107 38 -228 43 -69 70 -148 54 -164 -3 -3 -40 30 -83 74
-82 85 -127 162 -210 360 -52 124 -100 186 -221 292 -138 119 -187 121 -249
12 -23 -39 -26 -55 -26 -149 l0 -105 58 -133 c31 -72 57 -138 57 -146 0 -8
-47 -39 -105 -70 -91 -48 -157 -88 -175 -106 -3 -3 -32 -25 -64 -50 -33 -25
-90 -72 -126 -105 -344 -309 -501 -428 -653 -494 -43 -19 -77 -40 -77 -48 0
-19 37 -90 52 -99 8 -5 9 -2 3 12 -27 67 -29 74 -19 84 11 11 122 36 183 42
31 3 34 1 35 -24 1 -16 10 -36 19 -45 17 -17 22 -16 110 15 101 35 184 43 193
17 3 -8 -7 -31 -24 -52 -61 -79 -75 -129 -47 -170 13 -19 20 -20 47 -12 47 13
124 11 136 -4 8 -9 3 -24 -19 -57 -78 -116 -38 -137 149 -74 80 27 117 34 147
30 35 -4 37 -4 17 6 -46 23 -17 33 102 36 109 2 118 1 123 -17 3 -10 13 -21
24 -24 30 -8 22 -31 -17 -52 -48 -25 -101 -65 -87 -65 6 0 27 7 46 15 20 8 39
15 42 15 3 0 5 -7 5 -15 0 -9 9 -15 25 -15 31 0 69 -38 55 -55 -6 -7 -48 -15
-94 -17 -106 -7 -140 -23 -48 -23 92 0 89 -19 -11 -71 -42 -22 -85 -48 -95
-58 -11 -11 0 -8 30 9 70 39 94 28 29 -12 -29 -18 -59 -33 -67 -33 -8 0 -14
-9 -14 -20 0 -17 7 -20 39 -20 48 0 71 -8 71 -25 0 -14 -148 -128 -220 -169
-90 -51 -157 -28 -241 84 -44 59 -165 180 -148 148 6 -10 33 -40 61 -66 27
-26 65 -70 83 -99 47 -72 100 -128 134 -143 26 -11 38 -8 111 25 44 20 147 74
228 119 189 106 198 109 276 104 55 -3 70 -9 115 -43 51 -39 122 -122 134
-157 4 -12 -16 -44 -68 -104 -115 -135 -141 -201 -115 -296 18 -64 132 -142
228 -155 81 -10 82 -11 75 -107 -5 -75 -3 -88 16 -119 30 -50 63 -68 144 -79
90 -12 96 -16 149 -85 35 -47 54 -61 103 -80 75 -29 109 -27 113 7 1 14 11 50
21 80 10 30 21 76 25 102 3 26 20 81 38 122 28 66 35 74 57 74 28 -1 102 44
137 84 58 63 59 113 5 171 -39 43 -59 51 -140 57 -55 4 -77 9 -85 22 -15 25 2
37 62 45 61 7 67 19 16 29 -69 13 -174 -43 -174 -93 0 -10 22 -56 50 -102 61
-105 69 -135 43 -169 -33 -44 -50 -50 -75 -25 l-22 23 -11 -33 c-12 -37 -29
-42 -33 -9 -5 36 -29 37 -58 3 -14 -17 -30 -31 -34 -31 -5 0 -62 53 -128 118
-97 95 -121 124 -126 153 -11 63 17 125 93 204 71 74 161 178 161 188 0 3 16
28 35 57 44 66 47 100 4 48 -17 -21 -39 -38 -49 -38 -17 0 -78 66 -69 74 2 2
20 12 39 22 55 29 167 24 260 -10 41 -15 84 -30 95 -32 l20 -5 -20 12 c-72 43
-83 81 -29 99 76 25 153 -13 246 -123 29 -34 85 -95 125 -136 62 -63 75 -72
88 -61 8 7 15 23 15 36 0 12 4 25 9 29 6 3 25 35 44 71 l35 65 -37 16 -36 17
50 5 c61 7 49 17 -38 31 -133 21 -335 112 -469 210 -148 109 -238 302 -238
512 0 89 15 154 61 268 65 158 147 259 299 366 132 93 319 178 370 168 59 -12
50 -33 -42 -96 -32 -21 -56 -43 -53 -49 8 -12 196 -12 229 1 20 7 26 6 26 -5
0 -8 -8 -18 -17 -24 -35 -19 -3 -21 129 -7 117 12 145 19 213 50 43 20 82 36
87 36 5 0 -1 -13 -13 -30 -27 -36 -20 -46 22 -31 30 10 35 9 62 -16 99 -94
162 -391 108 -509 -21 -47 -63 -81 -106 -86 -18 -2 -30 -9 -30 -18 0 -15 41
-32 120 -48 28 -6 69 -16 92 -23 34 -10 49 -10 82 1 34 11 56 11 119 2 42 -7
98 -12 123 -12 54 0 59 -7 59 -79 l0 -47 -117 -1 c-308 -3 -398 -8 -433 -24
-48 -22 -70 -45 -70 -76 0 -26 0 -26 58 -18 31 4 80 8 107 9 l50 1 0 -85 c0
-67 5 -97 24 -143 13 -32 22 -59 20 -61 -12 -9 -273 -128 -308 -141 -107 -37
-348 -84 -437 -85 -40 0 -42 -1 -59 -47 -10 -27 -26 -62 -36 -79 -11 -17 -19
-41 -19 -52 0 -11 -5 -24 -10 -27 -6 -3 -7 -17 -4 -30 7 -27 -3 -65 -16 -65
-5 0 -10 14 -12 31 -3 30 -4 30 -44 -33 -55 -84 -55 -85 -64 -228 -8 -134 -29
-202 -64 -208 -30 -6 -40 12 -26 52 12 38 8 75 -5 44 -4 -10 -35 -47 -69 -83
-46 -48 -70 -65 -89 -65 -21 0 -28 -6 -33 -27 -4 -16 -18 -47 -30 -71 -12 -23
-26 -68 -30 -100 -4 -31 -15 -76 -25 -100 -11 -24 -19 -59 -19 -78 0 -32 2
-34 35 -34 31 0 39 -6 63 -43 47 -75 67 -127 56 -145 -6 -10 -39 -39 -74 -67
-182 -144 -216 -173 -233 -203 l-20 -33 29 -30 c16 -17 57 -44 91 -61 56 -28
70 -30 130 -26 38 3 88 14 113 25 106 47 106 37 -1 -72 -75 -78 -224 -195
-246 -195 -16 0 -89 -84 -111 -127 -31 -59 -35 -101 -18 -181 24 -111 20 -158
-20 -274 -32 -90 -44 -111 -95 -164 -32 -34 -61 -74 -65 -89 -4 -16 1 -57 11
-99 10 -40 15 -84 12 -98 -4 -14 -26 -48 -50 -74 -58 -64 -67 -84 -67 -139 0
-59 25 -96 97 -141 46 -30 52 -37 43 -54 -6 -11 -24 -30 -40 -42 -40 -29 -38
-37 10 -31 l39 6 -8 -29 c-8 -27 -58 -164 -77 -208 -6 -16 -4 -18 9 -13 9 4
24 10 33 14 24 9 11 -26 -47 -127 -27 -47 -51 -99 -55 -117 -6 -29 -4 -31 15
-26 29 8 28 -19 -5 -75 -24 -40 -25 -48 -15 -86 6 -22 24 -147 41 -276 29
-229 50 -331 86 -418 l17 -42 83 82 c104 103 112 107 119 71 16 -76 55 -108
55 -46 0 21 9 57 20 81 30 66 135 207 165 220 24 11 124 24 274 35 l53 4 -7
-51 c-10 -77 -52 -161 -102 -206 -28 -24 -73 -49 -121 -66 -216 -77 -357 -144
-448 -213 -49 -37 -66 -77 -46 -109 10 -14 197 82 353 182 70 45 121 69 180
86 73 21 90 31 145 83 59 55 65 65 90 145 15 48 29 119 31 157 6 83 20 110 63
119 43 8 34 27 -23 45 -26 8 -47 17 -47 21 0 3 20 19 45 34 25 16 45 32 45 35
0 3 -15 13 -33 21 -40 19 -49 56 -16 68 22 9 22 9 -9 32 -56 41 -93 150 -57
164 11 4 2 17 -34 51 -84 79 -105 161 -24 96 21 -17 54 -34 72 -37 l35 -7 -25
34 c-57 80 -97 189 -70 189 5 0 26 -22 47 -50 35 -46 61 -66 71 -56 3 2 -2 39
-11 81 -30 145 -18 183 73 230 26 13 53 31 61 40 9 10 16 68 22 173 8 150 10
160 44 235 41 87 40 101 -6 174 -43 68 -40 84 34 157 l65 64 15 -33 c9 -18 34
-99 56 -180 49 -178 59 -202 96 -237 39 -36 74 -48 144 -48 108 0 219 59 236
125 14 56 -38 179 -173 413 -64 110 -133 255 -133 280 0 6 8 12 18 12 9 0 44
20 77 45 33 25 93 61 132 81 40 19 75 40 79 45 3 5 8 7 12 5 4 -2 63 2 132 11
248 29 293 28 435 -7 109 -27 155 -33 302 -39 136 -5 176 -10 188 -22 10 -10
20 -55 29 -130 7 -64 18 -124 24 -135 5 -10 42 -49 80 -86 59 -57 75 -68 105
-68 19 0 39 -6 45 -12 25 -32 53 -167 72 -353 19 -192 43 -302 77 -369 9 -16
33 -88 54 -160 88 -295 100 -325 150 -370 59 -53 139 -93 212 -107 32 -5 88
-26 124 -46 35 -20 106 -54 156 -77 116 -52 196 -98 224 -128 23 -25 43 -86
43 -134 0 -53 29 -133 53 -146 13 -7 53 -11 94 -10 l73 2 47 -48 c27 -26 60
-67 76 -90 42 -65 103 -79 196 -43 28 10 52 16 55 13 3 -3 3 -29 0 -59 -4 -29
-3 -53 2 -53 4 0 34 28 66 62 l58 63 1 -50 c1 -28 4 -61 8 -75 7 -24 7 -24 20
8 18 42 35 42 26 -1 -7 -31 -34 -114 -50 -151 -7 -16 -5 -18 8 -13 22 8 22 -6
-1 -26 -22 -20 -119 -23 -188 -6 -25 6 -47 9 -51 6 -3 -4 8 -28 25 -54 17 -26
29 -51 26 -55 -9 -15 -48 -8 -119 21 -38 16 -72 27 -74 25 -3 -2 10 -19 27
-37 18 -18 32 -36 32 -40 0 -19 -33 -3 -78 38 -27 25 -53 45 -56 45 -3 0 -5
-21 -3 -47 2 -48 2 -48 -28 -45 -49 5 -110 37 -159 83 -26 23 -48 40 -51 38
-2 -3 0 -22 5 -44 5 -22 5 -44 0 -49 -9 -9 -95 35 -192 97 -32 21 -69 42 -83
47 -24 9 -25 8 -25 -25 0 -18 -4 -36 -9 -39 -5 -3 -54 3 -110 15 -55 11 -117
19 -138 17 l-38 -3 38 -20 c20 -10 37 -22 37 -27 0 -4 -37 -8 -82 -9 -46 0
-77 -3 -70 -6 26 -10 -1 -23 -51 -23 -71 0 -226 -19 -245 -29 -12 -7 -10 -12
11 -26 39 -25 33 -35 -19 -35 -37 0 -47 -4 -51 -19 -4 -14 -23 -24 -76 -36
-91 -22 -178 -63 -256 -120 -66 -49 -75 -65 -36 -65 14 0 25 -4 25 -8 0 -4
-25 -32 -55 -62 -55 -55 -69 -77 -39 -66 9 4 58 15 108 26 86 19 146 19 146 0
0 -5 -16 -38 -35 -73 -19 -35 -35 -67 -35 -70 0 -14 29 -6 101 27 127 57 147
54 84 -15 -19 -22 -35 -43 -35 -49 0 -5 24 0 53 11 184 74 208 71 387 -37 30
-18 88 -43 129 -55 77 -23 111 -23 427 -3 94 6 106 5 204 -26 58 -18 125 -42
150 -52 83 -36 353 -108 405 -108 78 0 296 37 356 60 172 65 303 266 394 605
27 102 48 151 122 285 45 81 80 182 114 325 16 71 20 112 17 195 -4 117 -15
147 -79 217 -47 51 -49 77 -10 139 30 46 48 100 38 111 -3 3 -18 -4 -34 -15
-42 -29 -110 -62 -129 -62 -16 0 -16 2 1 20 29 32 13 32 -52 -3 -34 -17 -65
-28 -69 -24 -4 4 8 23 26 42 41 43 25 46 -52 10 -51 -24 -126 -33 -162 -19
-22 8 -20 19 6 44 l22 20 -61 0 c-47 0 -73 6 -114 28 -58 30 -79 59 -79 110 0
49 -37 127 -66 141 -14 6 -50 11 -81 11 -76 0 -127 26 -219 111 -40 38 -79 69
-85 69 -7 0 -28 -5 -48 -11 -33 -10 -41 -8 -75 15 -22 14 -43 26 -48 26 -4 0
-29 10 -54 21 -38 18 -57 38 -112 122 -125 186 -139 219 -166 412 -36 257 -54
639 -59 1245 -2 130 1 150 20 193 l22 48 33 -17 c18 -9 44 -25 58 -34 39 -28
86 -163 105 -305 34 -251 56 -327 151 -521 62 -125 128 -239 226 -386 166
-250 189 -292 216 -383 31 -104 71 -160 136 -192 59 -28 81 -26 95 10 11 29
-4 401 -20 502 -34 217 -73 366 -146 570 -85 238 -98 289 -95 358 2 35 52 67
104 67 35 0 38 3 47 38 21 75 75 101 139 68 15 -8 59 -49 98 -93 60 -65 85
-85 158 -121 102 -51 235 -83 351 -85 114 -3 143 17 195 130 55 118 170 236
285 294 l80 40 8 -52 c9 -66 17 -75 17 -20 0 43 14 81 29 81 5 0 12 -24 16
-52 8 -60 36 -131 56 -144 8 -5 28 -14 44 -20 17 -6 38 -15 48 -19 24 -10 21
8 -9 52 -23 34 -25 46 -22 109 3 59 8 78 33 115 l30 44 5 -95 c5 -91 29 -170
52 -170 5 0 3 10 -4 23 -33 60 -6 231 58 359 29 57 50 74 40 32 -4 -16 -9 -74
-11 -129 -3 -83 -2 -89 4 -35 9 76 45 190 70 221 18 22 18 22 24 -30 8 -64 35
-115 65 -119 21 -3 21 -2 7 32 -18 42 -18 46 -5 46 6 0 15 -12 20 -26 17 -44
31 -22 33 51 2 39 6 76 10 83 10 14 37 16 37 2 0 -14 70 -90 82 -90 6 0 -4 16
-22 36 -17 20 -35 46 -40 58 -10 27 0 105 30 236 12 52 19 112 17 132 -5 41
-1 46 112 133 66 50 116 140 107 191 -11 55 -52 90 -119 98 -59 8 -191 47
-239 72 -41 21 -97 73 -114 105 -18 36 -18 40 4 33 9 -3 2 8 -17 25 -19 17
-33 33 -30 35 2 3 41 21 86 40 93 39 227 115 261 146 45 42 16 180 -38 180
-12 0 -44 -7 -72 -16 -46 -16 -54 -16 -102 -1 -28 9 -95 42 -150 73 -138 79
-193 97 -296 98 -75 0 -93 -3 -153 -32 -37 -17 -88 -48 -112 -68 -25 -20 -45
-34 -45 -31 0 3 33 52 73 109 135 194 217 394 217 534 0 34 2 68 5 76 4 10 36
12 153 10 176 -5 248 11 297 63 17 18 64 58 105 89 80 61 120 108 120 141 0
17 -13 25 -67 43 -113 36 -205 52 -246 42 -22 -4 -52 -4 -70 1 -46 13 -146 97
-207 176 -175 223 -371 373 -581 444 -89 31 -103 32 -283 37 l-188 4 6 42 c19
121 19 186 1 226 -21 47 -44 57 -87 36 -39 -20 -38 -20 -38 5 0 25 -16 56 -42
85 -18 21 -19 24 -4 52 9 17 16 40 16 50 0 11 6 24 13 30 19 16 185 62 224 62
23 0 32 4 27 11 -16 27 -257 -17 -308 -56 -17 -13 -17 -15 -3 -21 22 -8 21
-30 -3 -70 -13 -20 -32 -35 -50 -39 -17 -4 -49 -22 -71 -41 -23 -19 -51 -40
-63 -46 -12 -6 -50 -30 -86 -54 -62 -40 -177 -94 -200 -94 -5 0 -10 7 -10 15
0 9 20 24 45 35 63 27 62 54 -5 83 -48 21 -71 50 -53 67 4 4 26 13 48 20 22 7
34 15 28 17 -22 8 -83 -18 -94 -38 -14 -27 12 -67 52 -82 37 -14 33 -26 -17
-55 -29 -17 -50 -22 -84 -19 -40 3 -52 11 -115 74 -63 63 -188 143 -202 130
-2 -3 22 -25 54 -48 108 -80 187 -177 234 -286 14 -33 23 -43 31 -35 7 7 6 23
-5 56 -9 25 -12 48 -8 51 27 16 283 -100 377 -171 118 -89 229 -216 357 -410
37 -54 85 -126 108 -159 34 -47 44 -71 47 -112 4 -44 2 -53 -17 -62 -12 -7
-38 -11 -59 -10 -23 2 -48 -4 -62 -14 -49 -34 -149 -18 -194 31 -23 26 -15 38
29 46 44 9 44 19 0 35 -39 14 -44 25 -17 36 14 6 12 9 -13 21 -16 7 -42 13
-56 14 -14 0 -47 16 -73 36 -25 19 -95 64 -154 99 -59 35 -146 93 -194 129
-89 66 -106 70 -66 16 17 -23 19 -33 10 -42 -18 -18 -28 -2 -61 92 -139 402
-359 707 -599 829 -29 15 -53 38 -74 72 -42 68 -114 124 -178 138 -30 7 -91 8
-148 5 -90 -6 -99 -5 -124 15 -33 27 -102 163 -124 246 -24 92 -29 252 -11
379 9 60 20 113 25 118 6 6 34 -13 73 -47 76 -66 141 -90 179 -65 12 8 9 14
-20 38 -30 25 -33 32 -21 45 7 9 28 19 47 23 l34 6 -29 33 c-30 35 -48 86 -35
106 4 7 11 0 19 -18 18 -42 127 -156 183 -191 60 -38 175 -66 250 -60 58 4
137 35 137 53 0 15 -70 32 -183 43 -65 7 -113 17 -134 29 -48 28 -47 43 2 43
50 0 45 16 -8 25 -20 3 -59 18 -87 33 -41 22 -57 40 -92 102 -23 41 -47 96
-53 123 -20 96 -8 262 27 365 25 74 72 140 182 252 56 57 110 118 118 134 9
17 39 69 66 114 77 126 127 160 192 129 27 -13 44 -36 86 -119 58 -112 142
-209 211 -241 20 -10 40 -22 44 -28 10 -16 -33 -55 -75 -68 -70 -20 -107 -14
-195 34 -46 25 -93 45 -106 45 -33 0 -85 -60 -99 -114 -27 -110 -7 -177 103
-331 46 -66 96 -143 111 -172 25 -50 27 -60 23 -161 -3 -109 -17 -155 -65
-221 -13 -18 -14 -23 -3 -19 20 6 77 115 90 173 14 59 23 76 74 144 l39 52 29
-28 c27 -25 36 -28 101 -28 69 1 137 22 137 44 0 4 -19 13 -42 20 -89 27 -148
83 -148 144 0 34 10 34 41 1 13 -14 51 -40 84 -57 53 -27 69 -31 139 -30 75 1
81 0 123 -32 25 -19 61 -39 81 -46 65 -20 121 -61 136 -100 35 -88 29 -285
-15 -469 -28 -117 -28 -188 0 -233 28 -46 63 -67 120 -76 45 -6 46 -7 49 -44
8 -96 -49 -239 -125 -315 -58 -58 -120 -96 -211 -128 l-67 -24 60 5 c96 10
126 22 191 75 72 59 139 157 165 242 33 105 19 203 -29 214 -15 3 -36 8 -47
11 -110 26 -128 84 -78 255 26 89 27 104 28 320 0 224 1 228 23 244 12 8 29
30 38 47 8 18 26 52 40 77 33 61 32 83 -3 73 -46 -13 -176 -10 -180 4 -3 7 45
64 105 126 118 123 181 217 231 347 48 125 74 283 52 318 -11 18 -21 -17 -21
-76 0 -55 -26 -180 -51 -246 -43 -116 -107 -207 -231 -329 -71 -69 -127 -117
-136 -115 -32 6 -62 67 -62 124 0 45 5 59 31 89 28 32 195 135 219 135 14 0 3
-44 -27 -103 -13 -27 -22 -51 -19 -54 6 -6 73 97 86 134 6 16 14 37 19 48 19
42 41 119 35 124 -3 3 -16 -7 -27 -22 -65 -84 -92 -106 -194 -162 -114 -63
-213 -148 -213 -184 0 -11 -4 -22 -9 -25 -5 -3 -49 15 -97 41 -48 26 -104 52
-123 59 -60 21 -47 38 44 59 27 7 28 8 10 15 -11 5 -32 11 -47 14 -35 8 -35
16 -1 57 35 41 98 68 253 108 210 55 294 97 411 203 32 29 109 137 109 153 0
19 -26 -5 -75 -70 -108 -143 -238 -219 -435 -254 -128 -23 -225 -64 -297 -126
-45 -38 -100 -65 -133 -65 -33 0 -23 16 29 49 38 23 52 38 60 66 15 54 -1 79
-79 119 -80 42 -122 83 -151 145 -12 26 -32 70 -46 99 -13 29 -40 64 -59 78
-29 23 -41 26 -85 22 -28 -3 -63 -14 -77 -25 -15 -11 -59 -67 -99 -124 -40
-57 -127 -162 -193 -234 -122 -130 -159 -185 -194 -290 -12 -39 -34 -68 -91
-125 -52 -52 -75 -82 -75 -99 0 -22 3 -20 30 17 34 47 70 72 70 48 0 -8 -43
-61 -95 -117 -120 -130 -138 -165 -136 -270 1 -50 -6 -107 -18 -156 -39 -156
-52 -359 -31 -478 34 -186 26 -184 -100 25 -52 86 -106 93 -235 32 -46 -22
-87 -37 -90 -32 -3 5 4 34 16 66 18 47 41 77 131 167 60 60 120 128 133 151
23 40 95 261 95 292 0 11 -15 5 -50 -21 -27 -20 -50 -31 -50 -24 0 6 9 42 19
78 11 36 30 113 42 171 12 58 30 124 40 148 11 24 19 46 19 48 0 13 -34 -2
-100 -46 -113 -75 -163 -90 -127 -38 9 13 36 52 61 88 25 36 41 67 35 69 -5 1
-31 -2 -56 -8 -25 -7 -48 -9 -51 -6 -4 3 21 32 53 63 151 144 207 251 281 533
30 117 63 232 74 257 11 25 18 47 15 50 -3 3 -20 -9 -38 -26 -18 -18 -36 -30
-40 -26 -7 7 46 156 86 245 14 31 24 59 21 61 -2 3 -49 -38 -103 -91 -144
-141 -275 -227 -416 -272 -98 -31 -99 -30 -91 49 4 37 11 108 15 158 5 54 16
102 25 116 37 57 66 166 66 251 0 110 -21 181 -70 229 -32 33 -44 38 -82 38
l-44 0 -18 -57z m124 -33 c0 -40 -20 -77 -64 -118 -29 -27 -37 -31 -42 -18
-14 35 61 166 95 166 6 0 11 -14 11 -30z m34 -66 c10 -25 7 -59 -6 -72 -9 -9
-8 -15 8 -26 18 -14 18 -17 4 -43 -20 -35 -43 -40 -69 -14 -11 11 -35 24 -53
29 l-32 8 64 65 c36 36 68 67 71 67 4 1 10 -5 13 -14z m-673 -193 c18 -15 28
-17 43 -9 11 6 50 7 95 4 102 -9 117 -9 179 -1 45 7 52 5 52 -10 0 -14 5 -12
31 9 34 29 66 33 94 12 12 -9 16 -20 12 -32 -5 -13 0 -10 16 9 22 26 67 38 67
16 0 -6 8 -8 18 -5 9 3 27 -2 39 -12 l22 -17 -21 -45 c-15 -32 -22 -40 -25
-27 -7 26 -23 20 -23 -8 0 -40 -27 -85 -89 -148 -35 -36 -52 -60 -45 -65 6 -4
14 -14 17 -22 4 -11 6 -10 6 4 1 26 40 66 64 66 18 0 19 -5 14 -57 -4 -36 -19
-84 -42 -130 -32 -64 -43 -77 -87 -101 -27 -15 -77 -44 -109 -64 -33 -21 -62
-38 -64 -38 -3 0 -5 10 -6 23 0 12 -11 -16 -22 -63 -18 -70 -25 -85 -42 -85
-15 0 -23 -12 -33 -49 -16 -55 -22 -52 -47 24 -9 30 -24 71 -32 90 l-15 35
-14 -30 c-7 -16 -27 -66 -44 -111 -43 -115 -45 -117 -100 -90 l-45 22 1 74 2
75 -17 -52 c-9 -29 -21 -57 -27 -63 -8 -8 -40 -6 -118 9 -58 11 -111 23 -118
27 -13 9 -5 116 16 194 11 43 11 51 1 37 -12 -17 -45 -170 -45 -210 0 -14 -7
-18 -31 -15 -29 3 -34 9 -70 92 -21 49 -52 107 -70 128 -26 33 -30 46 -26 74
l6 34 -25 -29 c-29 -35 -30 -44 -3 -88 24 -38 38 -158 22 -186 -8 -15 -12 -15
-43 1 -23 11 -36 25 -38 41 l-4 25 -18 -24 -18 -24 -37 19 c-48 26 -99 83
-116 129 -7 20 -15 36 -19 36 -15 0 -49 -111 -43 -143 6 -42 -3 -49 -50 -36
-53 14 -60 36 -54 153 5 107 30 188 78 257 33 48 120 126 144 130 11 3 21 14
23 26 4 26 29 38 48 22 10 -8 18 -8 27 -1 25 21 86 25 113 7 20 -13 28 -14 40
-4 26 21 164 -25 164 -56 0 -17 12 -19 26 -5 7 7 30 -1 72 -26 34 -20 62 -40
62 -44 0 -4 -11 -33 -25 -64 -14 -31 -23 -56 -21 -56 2 0 18 24 35 54 16 30
35 57 41 61 6 4 26 -5 45 -19 18 -14 45 -26 58 -26 13 0 36 -9 50 -20 21 -17
25 -27 21 -58 l-4 -37 17 39 c16 38 17 38 60 32 24 -3 70 -18 101 -33 l57 -28
0 -154 c0 -85 3 -143 6 -130 4 13 7 47 8 74 1 28 4 80 8 118 7 74 18 83 57 44
12 -12 33 -23 45 -24 22 -2 22 -1 6 23 -9 14 -14 32 -11 40 4 11 1 14 -12 10
-11 -4 -54 10 -104 34 -47 22 -91 40 -97 40 -22 0 -22 28 -1 72 21 43 21 43 0
16 -11 -14 -29 -37 -39 -49 l-18 -23 -64 23 c-83 30 -109 47 -109 71 0 18 -3
19 -20 8 -17 -11 -28 -8 -76 17 -59 32 -74 49 -55 68 19 19 12 31 -7 14 -23
-21 -51 -22 -80 -1 -48 33 -14 89 83 134 28 13 52 27 55 30 7 9 120 31 129 25
6 -3 49 2 112 14 4 0 17 -8 30 -18z m845 -637 c-11 -28 -36 -185 -36 -222 0
-20 -7 -62 -16 -94 -21 -74 -92 -145 -177 -176 -68 -26 -77 -27 -77 -9 0 18
29 77 48 100 24 27 5 33 -29 8 -17 -13 -33 -20 -37 -17 -13 13 31 117 68 163
22 26 36 49 30 51 -17 6 -151 -71 -202 -117 -27 -24 -51 -41 -54 -38 -10 9 33
81 72 120 42 41 113 87 273 174 22 13 58 34 78 47 45 29 68 33 59 10z m1296
-486 c88 -38 86 -37 68 -48 -22 -14 -51 -12 -109 6 -53 18 -87 46 -76 63 11
18 41 13 117 -21z m-2812 -36 c0 -4 -18 -26 -40 -47 -22 -21 -40 -45 -40 -52
0 -24 74 -14 208 27 147 45 174 48 209 20 14 -11 34 -20 44 -20 11 0 30 -17
44 -38 69 -105 43 -275 -68 -434 -42 -60 -56 -88 -42 -88 2 0 21 11 41 25 77
52 90 24 23 -49 -29 -31 -49 -59 -45 -63 3 -3 36 8 73 25 38 17 91 40 118 50
28 11 77 34 111 51 99 50 176 66 261 53 189 -30 302 -138 291 -279 -6 -67 -24
-92 -122 -168 -43 -33 -74 -61 -69 -62 5 -2 43 8 84 21 41 13 78 21 83 16 11
-11 -22 -58 -71 -100 -20 -18 -80 -53 -132 -77 -203 -93 -285 -139 -349 -193
-180 -151 -258 -314 -342 -715 -77 -367 -92 -415 -184 -584 -49 -90 -99 -151
-164 -198 -61 -46 -71 -18 -17 47 20 24 33 45 31 48 -3 2 -33 -14 -68 -37 -76
-50 -161 -91 -189 -91 -17 0 -18 3 -8 21 6 12 38 50 70 85 60 64 78 93 37 58
-13 -10 -49 -42 -80 -71 -57 -51 -196 -129 -218 -121 -7 2 0 24 20 62 17 32
29 61 26 63 -2 2 -17 -8 -34 -22 -44 -37 -133 -75 -193 -82 -42 -5 -51 -3 -47
8 4 13 85 78 148 121 l25 16 -28 11 c-16 6 -57 11 -92 11 -102 0 -221 52 -280
122 -65 77 -87 200 -45 246 27 29 34 28 62 -9 44 -58 73 -81 159 -124 128 -65
185 -79 319 -80 162 0 260 29 413 122 60 36 67 59 8 29 -59 -31 -65 -19 -19
35 128 151 218 350 258 574 55 310 87 419 170 590 59 120 107 183 132 171 7
-3 24 -14 37 -23 l24 -17 -6 34 c-4 19 -10 77 -13 128 -8 102 -19 112 -43 40
-20 -59 -32 -72 -171 -178 -63 -48 -178 -151 -255 -227 -156 -155 -248 -218
-401 -276 -191 -73 -302 -82 -506 -42 -148 29 -205 49 -282 99 -70 47 -124
108 -189 214 -27 45 -52 80 -55 77 -14 -14 69 -195 111 -242 11 -13 18 -26 14
-29 -10 -10 -120 17 -210 54 -91 36 -215 111 -254 153 -35 38 -92 168 -107
244 -26 126 -25 256 2 283 10 10 16 28 14 45 -5 45 20 32 57 -30 35 -57 97
-133 111 -133 7 0 44 146 58 229 11 65 30 72 97 37 60 -31 69 -50 30 -68 -14
-6 -25 -15 -25 -20 0 -5 14 -1 31 8 19 9 41 13 56 9 20 -5 24 -10 19 -30 -5
-21 -2 -24 26 -27 45 -4 51 -35 9 -49 -47 -17 -37 -28 15 -17 39 8 48 7 66 -9
28 -24 89 -116 122 -181 15 -30 29 -52 32 -49 7 6 -32 103 -62 154 -37 63 -33
76 19 68 112 -19 239 -84 338 -173 32 -30 59 -49 59 -44 0 6 -32 44 -71 86
-40 42 -70 79 -68 81 8 7 90 -15 127 -34 21 -11 75 -53 122 -94 47 -42 87 -74
89 -72 2 2 -24 39 -58 81 -33 42 -61 81 -61 86 0 6 31 9 78 6 76 -3 101 -12
180 -59 l37 -23 -19 22 c-24 28 -117 82 -141 82 -20 0 -85 67 -85 87 0 17 -4
18 76 -22 60 -31 118 -48 89 -27 -15 10 -68 124 -99 209 -46 129 -69 163 -145
213 -44 29 -48 178 -6 206 20 13 28 13 80 -7 48 -18 59 -19 67 -8 7 11 25 -3
76 -58 37 -40 71 -73 75 -73 4 0 7 8 7 17 0 50 180 276 242 303 13 6 42 21 66
34 55 31 92 43 92 28z m2713 -146 c120 -79 141 -112 141 -226 -1 -83 -17 -160
-34 -160 -5 0 -14 24 -20 54 -13 64 -46 119 -125 206 -61 69 -99 139 -111 205
l-6 40 33 -31 c19 -17 74 -57 122 -88z m-4459 -147 c21 -25 26 -41 26 -86 0
-47 -4 -59 -29 -84 -16 -16 -36 -29 -44 -29 -25 0 -40 55 -35 124 9 107 35
131 82 75z m4954 -52 c40 -21 72 -44 72 -52 0 -18 -27 -19 -56 -2 -35 21 -104
80 -104 90 0 10 -5 12 88 -36z m-3869 -323 c-9 -11 -9 -18 3 -32 24 -28 30
-42 18 -42 -27 0 -119 128 -103 143 3 4 25 -7 50 -24 36 -25 42 -33 32 -45z
m114 -64 c22 -50 37 -94 34 -96 -9 -9 -66 26 -81 49 -7 12 -22 48 -31 80 -15
49 -16 60 -5 67 25 16 45 -8 83 -100z m-163 20 c23 -44 24 -50 11 -50 -11 0
-41 56 -41 77 0 22 9 15 30 -27z m104 -146 c4 -9 4 -19 2 -21 -8 -8 -26 8 -26
23 0 19 16 18 24 -2z m2160 -365 c14 -11 45 -52 67 -91 23 -39 65 -97 94 -128
50 -55 85 -135 69 -161 -3 -5 -60 -37 -127 -71 -95 -47 -137 -75 -192 -128
-38 -36 -88 -77 -110 -91 -55 -32 -113 -87 -131 -121 -21 -40 -137 -133 -185
-147 -29 -9 -67 -37 -128 -96 l-87 -84 -31 25 c-18 13 -48 31 -68 40 l-37 15
7 81 c8 92 17 130 39 164 14 20 21 22 69 17 51 -5 60 -2 167 52 83 43 132 76
183 124 97 92 306 337 328 386 11 23 19 64 19 96 0 50 -3 57 -25 67 -14 7 -38
12 -53 12 -24 0 -25 1 -11 16 15 15 82 43 105 44 6 0 23 -9 38 -21z m-84 -79
c0 -5 -18 -10 -39 -10 -22 0 -43 5 -46 10 -4 6 12 10 39 10 25 0 46 -4 46 -10z
m-1330 -115 c0 -68 -6 -77 -32 -47 -34 38 -40 60 -22 87 9 14 25 25 35 25 17
0 19 -8 19 -65z m-126 -51 c3 -9 6 -42 6 -74 0 -79 -5 -90 -46 -90 -26 0 -43
-9 -70 -35 -19 -19 -37 -35 -40 -35 -30 0 -90 79 -80 105 3 9 16 19 29 24 26
10 117 68 157 100 30 25 36 26 44 5z m-2019 -87 c17 -8 66 -45 109 -81 44 -36
85 -66 92 -66 7 0 14 -5 16 -11 2 -6 26 -19 53 -28 201 -71 354 -224 436 -436
28 -70 32 -93 33 -183 1 -96 -1 -105 -21 -122 -30 -24 -103 -34 -152 -20 -50
13 -84 47 -162 161 -77 112 -109 140 -224 195 -103 49 -157 92 -253 205 -96
112 -140 172 -163 224 -19 43 -19 48 -5 93 24 70 63 93 146 89 36 -2 79 -11
95 -20z m648 -3 c14 -5 17 -18 17 -94 0 -98 -9 -114 -44 -81 -27 26 -100 176
-92 189 5 9 73 1 119 -14z m3465 -43 c46 -24 106 -86 98 -100 -4 -6 -23 -11
-41 -11 -19 0 -53 -7 -75 -16 -39 -16 -42 -16 -63 3 -31 29 -63 44 -132 64
-33 10 -54 18 -47 18 6 1 12 9 12 19 0 34 21 42 117 42 73 0 102 -4 131 -19z
m163 -12 c36 -18 99 -81 99 -99 0 -6 -20 -10 -45 -10 -45 0 -75 18 -101 61 -5
8 -24 25 -42 38 -18 12 -30 27 -26 32 7 13 70 1 115 -22z m-2081 -21 c0 -24
-26 -169 -36 -201 -4 -14 -12 -17 -34 -12 -37 8 -50 -15 -50 -84 l0 -51 -35 0
c-58 0 -67 -26 -63 -174 2 -68 0 -128 -4 -131 -4 -4 -33 15 -63 44 -98 89
-125 64 -133 -119 l-5 -120 -46 0 c-44 0 -49 3 -109 67 -60 64 -65 67 -78 48
-8 -10 -14 -25 -14 -32 0 -19 -18 -16 -30 6 -13 25 -13 107 0 132 9 16 22 19
85 19 59 0 80 4 108 23 34 22 99 108 132 177 37 75 106 153 121 137 2 -2 -1
-19 -6 -38 -14 -56 -22 -139 -13 -139 4 0 16 41 25 90 23 127 91 262 165 330
60 55 83 62 83 28z m-472 -71 c-3 -35 -15 -85 -27 -111 -18 -42 -23 -47 -37
-35 -20 16 -44 63 -59 114 l-13 40 57 27 c83 40 85 39 79 -35z m2184 18 c37
-15 74 -35 84 -46 17 -18 16 -21 -13 -57 -17 -21 -41 -38 -55 -40 -15 -2 -66
18 -131 52 -58 31 -117 56 -131 56 -36 0 -33 16 6 36 79 41 136 41 240 -1z
m-2861 -6 c35 -12 68 -25 73 -30 9 -8 -8 -206 -18 -217 -13 -13 -57 20 -76 58
-18 36 -60 176 -60 202 0 12 9 10 81 -13z m417 -109 c-3 -54 -8 -75 -25 -91
-19 -19 -23 -20 -48 -8 -28 14 -80 95 -87 134 -3 22 28 31 116 34 l48 1 -4
-70z m2228 55 c48 -20 183 -117 183 -133 1 -16 -58 -52 -86 -52 -38 0 -267
100 -285 125 -9 13 20 45 57 61 40 18 88 17 131 -1z m-949 -34 c43 -20 72 -56
56 -72 -5 -5 -36 -2 -71 6 -59 14 -65 14 -105 -6 -24 -12 -63 -46 -94 -83 -37
-45 -68 -71 -112 -93 -34 -17 -63 -28 -66 -23 -10 16 52 118 105 171 72 72
153 115 225 118 11 0 39 -8 62 -18z m866 -103 c124 -75 131 -88 55 -109 -29
-7 -58 -8 -97 -1 -60 11 -191 66 -191 81 0 9 63 61 90 73 27 13 73 -1 143 -44z
m-931 -5 c41 -39 37 -54 -9 -41 -21 6 -47 15 -57 20 -18 10 -18 11 5 29 30 24
28 24 61 -8z m-542 -42 c0 -14 -5 -33 -10 -41 -9 -13 -11 -13 -20 0 -11 17
-13 73 -3 83 12 12 33 -15 33 -42z m2519 -6 c56 -29 139 -141 215 -292 14 -29
26 -56 26 -61 0 -4 -55 -13 -122 -20 -279 -26 -456 -136 -615 -379 -30 -46
-58 -83 -63 -83 -5 0 -33 23 -64 51 -61 55 -101 128 -111 199 -12 86 51 222
153 332 163 176 472 310 581 253z m-1220 -39 c42 -19 98 -40 124 -47 55 -13
56 -28 3 -48 -34 -13 -47 -11 -174 19 -75 18 -139 35 -141 37 -3 2 11 19 29
38 43 44 62 44 159 1z m2275 18 c21 -20 21 -88 0 -105 -13 -10 -17 -10 -24 0
-12 20 -30 4 -30 -27 0 -17 -13 -40 -37 -64 l-36 -37 -36 38 c-20 20 -30 30
-23 21 19 -26 14 -56 -13 -88 -41 -49 -71 -49 -167 -1 -45 23 -85 43 -87 45
-12 11 39 46 89 62 54 16 60 20 60 41 0 5 20 19 45 31 38 18 59 21 120 18 41
-2 75 -2 75 -1 0 1 -18 12 -40 23 -22 11 -40 23 -40 26 0 10 66 33 97 34 17 0
39 -7 47 -16z m-3045 -8 c10 -12 8 -18 -11 -30 -33 -22 -148 -50 -159 -39 -12
12 26 61 55 73 34 14 102 11 115 -4z m1191 1 c0 -8 -9 -49 -20 -92 -49 -192
-11 -437 94 -604 15 -23 25 -45 22 -48 -8 -8 -41 34 -87 110 -22 37 -44 67
-50 67 -22 0 19 -88 75 -160 19 -25 33 -47 30 -49 -2 -3 -27 17 -54 44 -56 56
-65 46 -19 -21 32 -46 117 -120 156 -135 13 -5 23 -13 23 -19 0 -6 -13 -4 -31
5 -17 9 -33 14 -37 11 -7 -8 -9 -6 73 -51 104 -57 122 -71 166 -136 22 -33 51
-64 64 -69 24 -9 62 -56 53 -65 -3 -3 -34 2 -69 11 -40 10 -81 14 -113 10 -40
-4 -63 0 -115 20 -35 14 -80 28 -100 32 -32 5 -35 4 -23 -11 39 -46 -98 -167
-190 -167 l-32 0 45 48 c25 26 57 66 72 89 19 30 34 43 54 45 23 2 16 7 -37
25 -36 11 -82 24 -102 28 -28 5 -39 14 -49 38 -8 18 -38 60 -69 93 -30 34 -72
81 -92 104 l-37 42 65 69 c35 37 64 74 64 82 0 7 11 24 25 37 43 40 47 74 30
220 -16 138 -17 141 -74 202 -19 21 -33 40 -30 42 10 11 226 140 254 152 39
17 65 17 65 1z m-1787 -71 c26 -24 26 -26 13 -64 -8 -22 -22 -55 -31 -73 -22
-42 -32 -27 -41 64 -10 100 7 121 59 73z m582 -28 c-13 -42 -55 -76 -108 -88
-58 -12 -70 -5 -65 36 3 30 20 39 113 62 63 15 67 15 60 -10z m3205 -8 c24
-24 26 -76 7 -123 -15 -34 -64 -97 -76 -97 -5 0 -6 22 -3 50 4 45 1 53 -27 86
-36 40 -33 51 24 86 38 23 50 23 75 -2z m-3400 -76 c0 -84 -1 -86 -32 -112
-69 -58 -138 -125 -138 -135 0 -6 8 -3 18 6 27 25 32 21 32 -24 0 -56 55 -113
118 -123 53 -8 53 -26 -1 -69 -50 -41 -138 -50 -178 -18 -31 24 -41 72 -28
127 5 22 11 60 14 86 3 41 49 167 75 208 6 8 14 25 19 36 10 23 84 104 94 104
4 0 7 -39 7 -86z m907 60 c42 -21 60 -46 68 -99 5 -32 3 -44 -15 -62 -38 -41
-88 -27 -99 28 -5 27 -15 38 -51 57 -24 12 -59 22 -77 22 -52 0 -48 18 9 45
62 29 116 32 165 9z m141 -58 c66 -42 112 -104 112 -151 0 -7 -12 -28 -27 -45
-26 -31 -28 -32 -94 -28 -55 3 -73 8 -94 28 -33 31 -32 47 5 55 52 11 72 78
45 148 -10 24 8 22 53 -7z m-309 -17 c59 -12 101 -42 101 -72 0 -27 -47 -95
-70 -102 -10 -3 -44 7 -76 24 -44 22 -80 31 -141 36 -46 4 -83 11 -83 16 0 24
155 108 202 109 9 0 40 -5 67 -11z m2560 -20 c23 -42 7 -93 -49 -151 -27 -27
-53 -47 -59 -43 -6 3 -11 35 -11 71 0 35 -6 73 -12 85 -11 18 -9 23 16 45 38
34 94 30 115 -7z m-3125 -5 c10 -26 7 -32 -16 -36 -22 -3 -22 -4 6 -18 39 -20
36 -34 -8 -41 -68 -11 -125 -92 -126 -176 0 -41 -1 -43 -31 -43 -22 0 -41 10
-65 34 -38 38 -44 77 -19 125 15 30 101 111 117 111 5 0 4 9 -2 20 -14 27 -9
29 116 38 12 1 25 -5 28 -14z m-1349 -49 c15 -30 25 -62 21 -70 -7 -20 -70
-49 -90 -42 -10 4 -16 18 -16 35 0 33 38 132 51 132 4 0 20 -25 34 -55z m181
12 c2 -7 -2 -30 -11 -50 -8 -20 -15 -48 -15 -62 0 -22 -4 -26 -22 -23 -19 2
-22 8 -20 33 4 40 38 115 52 115 6 0 13 -6 16 -13z m419 -13 c13 -8 36 -31 50
-50 l27 -35 -37 -45 c-44 -53 -82 -81 -95 -68 -12 12 -24 156 -16 188 7 30 34
34 71 10z m3714 -3 c16 -11 26 -100 12 -120 -7 -12 -15 -10 -43 7 -18 11 -43
32 -56 45 -21 23 -22 24 -4 40 15 14 57 35 72 36 3 0 11 -3 19 -8z m-5964 -30
c69 -41 147 -118 200 -200 25 -38 129 -239 233 -448 104 -208 208 -409 232
-448 31 -50 44 -81 44 -110 1 -39 0 -40 -35 -43 -33 -3 -41 2 -77 44 -22 27
-47 59 -54 73 -7 15 -30 54 -51 89 -63 106 -136 256 -172 357 -53 145 -84 202
-137 249 -47 43 -130 76 -189 76 -72 0 -149 198 -125 323 14 73 52 84 131 38z
m3129 -39 c50 -29 58 -51 36 -100 -23 -50 -44 -60 -155 -71 -44 -4 -86 -10
-94 -12 -9 -2 -21 8 -29 25 -12 23 -12 36 -3 67 30 99 151 144 245 91z m361
-13 c25 -12 48 -25 51 -30 8 -14 -46 -79 -86 -104 -70 -44 -125 -57 -202 -46
-39 5 -72 12 -74 14 -9 8 32 99 60 134 16 19 43 41 60 49 41 19 132 11 191
-17z m241 -9 c20 -29 37 -43 68 -52 40 -11 136 -15 166 -7 12 3 14 -5 11 -41
-6 -87 -46 -130 -119 -130 -52 0 -118 32 -127 61 -6 19 -9 20 -16 6 -5 -9 -22
-28 -37 -44 -15 -15 -34 -38 -42 -51 -12 -18 -32 -25 -106 -37 -50 -8 -99 -17
-108 -21 -22 -8 -20 7 6 80 19 52 37 75 131 168 60 59 118 108 128 108 11 0
30 -17 45 -40z m2484 30 c0 -45 -63 -100 -114 -100 -53 0 -39 25 45 80 47 30
69 37 69 20z m-4517 -117 c20 -78 21 -103 6 -103 -22 0 -100 23 -104 31 -7 11
57 139 70 139 6 0 18 -30 28 -67z m4942 28 c102 -26 229 -90 326 -163 41 -31
150 -135 242 -231 128 -134 180 -181 227 -206 33 -18 60 -35 60 -39 0 -4 -11
-23 -24 -43 -38 -55 -57 -108 -63 -176 l-6 -63 -33 0 c-40 0 -135 20 -148 31
-15 13 -35 193 -36 312 0 91 -3 109 -17 114 -34 13 -86 -31 -162 -137 -42 -58
-109 -140 -151 -183 l-74 -79 -87 4 c-48 1 -91 6 -95 11 -4 4 3 18 16 32 20
21 21 25 6 25 -10 0 -46 -26 -82 -57 -75 -68 -164 -124 -243 -154 -90 -34
-200 -59 -258 -59 -50 0 -55 2 -71 31 -53 97 -133 216 -203 303 -43 54 -79
104 -79 110 0 6 20 22 45 35 25 13 57 34 71 47 14 13 33 24 43 24 22 0 141
-122 141 -144 0 -33 49 -124 86 -161 42 -41 125 -85 162 -85 12 0 31 9 43 21
18 18 20 28 14 66 -6 42 -5 45 12 38 10 -5 48 -10 84 -13 58 -4 70 -1 88 17
30 30 26 61 -13 117 -105 148 -320 474 -324 491 -2 7 6 25 17 39 11 14 23 42
27 63 8 48 28 78 56 85 13 2 91 3 173 1 111 -2 171 -8 230 -24z m-5139 11 c13
-9 44 -54 44 -64 0 -19 -30 -6 -54 23 -31 36 -24 65 10 41z m476 -64 c50 -61
60 -84 45 -96 -14 -11 -114 -25 -126 -18 -10 6 5 110 20 137 14 27 22 24 61
-23z m4170 13 c10 -10 -16 -76 -32 -79 -19 -3 -90 60 -90 81 0 13 10 15 58 10
31 -3 60 -8 64 -12z m-5417 -125 c208 -40 290 -85 417 -228 l62 -70 -23 -17
c-32 -25 -16 -31 35 -14 58 20 68 9 24 -24 -45 -34 -165 -154 -216 -217 l-40
-49 -31 54 c-32 57 -67 92 -171 172 -35 26 -77 68 -95 93 -42 60 -44 42 -13
-93 14 -59 32 -149 41 -199 25 -148 40 -187 100 -256 30 -34 52 -65 49 -69 -2
-4 -19 -3 -37 3 -97 33 -184 139 -211 255 -8 38 -20 142 -26 233 -12 190 -25
249 -74 350 -37 74 -46 134 -23 143 6 3 30 -5 52 -18 24 -14 95 -33 180 -49z
m2427 54 c13 0 7 -30 -25 -135 -14 -43 -29 -81 -35 -83 -5 -1 -19 9 -31 24
-53 67 -1 221 67 198 8 -2 18 -4 24 -4z m-195 -17 c-9 -9 -19 -14 -23 -11 -10
10 6 28 24 28 15 0 15 -1 -1 -17z m68 -70 c-4 -38 -9 -77 -12 -87 -5 -19 -6
-19 -24 3 -36 44 -16 151 27 151 13 0 15 -11 9 -67z m389 45 c-10 -33 -34 -67
-54 -78 -13 -7 -23 -3 -38 13 -35 37 -31 48 23 67 69 25 78 25 69 -2z m405
-54 c16 -4 38 -15 48 -26 16 -17 16 -22 3 -46 -20 -36 -94 -72 -146 -72 -97 0
-125 82 -58 173 l35 48 44 -35 c24 -20 57 -39 74 -42z m-1233 39 c-3 -16 -9
-71 -12 -124 l-7 -96 38 -42 38 -42 -20 -20 -20 -21 -77 67 c-42 36 -76 68
-76 69 0 1 19 36 43 77 23 41 51 94 61 117 21 47 41 56 32 15z m654 12 c10
-12 5 -25 -23 -72 -19 -32 -38 -68 -42 -80 -7 -27 -23 -30 -32 -7 -10 26 17
121 42 148 28 30 38 32 55 11z m-312 -15 c9 -24 0 -135 -11 -147 -20 -20 -83
61 -73 94 7 22 53 73 67 73 5 0 13 -9 17 -20z m370 -52 c7 -7 12 -25 12 -40 0
-21 -9 -34 -40 -54 -22 -14 -46 -24 -55 -20 -13 5 -12 12 6 58 11 28 23 56 25
60 8 12 38 10 52 -4z m-668 -33 c15 -18 70 -19 139 -3 28 6 54 9 57 6 3 -4 8
-24 11 -47 15 -114 -145 -185 -229 -100 -23 23 -28 36 -28 77 0 78 19 104 50
67z m986 -3 c-10 -17 15 -81 39 -100 33 -26 32 -36 -11 -62 -60 -38 -163 -21
-199 33 -23 35 -30 90 -13 104 30 25 198 48 184 25z m-211 -79 c8 -52 16 -73
41 -97 37 -37 -16 -47 -85 -16 -41 19 -43 21 -29 43 8 12 23 43 33 70 10 26
21 47 25 47 4 0 11 -21 15 -47z m-317 -52 c20 -10 21 -15 11 -28 -10 -11 -25
-14 -57 -10 -55 6 -102 47 -102 90 l0 29 63 -35 c34 -19 72 -40 85 -46z m2462
69 c0 -17 -30 -70 -39 -70 -13 0 -34 48 -28 64 7 18 67 23 67 6z m-5521 -22
c23 -13 50 -35 59 -51 16 -26 16 -29 -8 -75 -30 -56 -95 -123 -157 -159 -24
-14 -95 -42 -156 -63 -62 -20 -132 -46 -157 -58 -84 -38 -194 -79 -315 -117
-66 -20 -140 -48 -164 -61 -25 -14 -48 -21 -52 -17 -11 11 16 41 86 97 33 26
65 53 70 60 11 14 90 84 180 161 32 28 64 55 70 62 7 6 28 22 47 35 18 13 40
29 48 36 53 46 160 118 213 142 82 38 173 41 236 8z m3311 3 c-14 -27 -50 -51
-75 -51 -16 1 -13 7 20 35 46 39 72 47 55 16z m2255 -21 c0 -8 -8 -16 -17 -18
-13 -2 -18 3 -18 18 0 15 5 20 18 18 9 -2 17 -10 17 -18z m-2681 -23 c44 -58
30 -109 -41 -146 -30 -15 -113 3 -143 31 l-23 22 39 17 c38 16 104 79 104 99
0 23 41 8 64 -23z m2764 -9 c18 -18 14 -49 -10 -75 -26 -28 -53 -31 -43 -5 4
9 9 34 12 55 6 38 20 46 41 25z m-173 -93 c27 -50 59 -103 70 -119 l19 -29
-29 -23 c-60 -47 -149 -83 -249 -99 -118 -19 -146 -33 -251 -121 -106 -89
-133 -106 -157 -93 -28 15 -148 160 -148 179 0 24 103 144 153 179 56 38 115
61 270 107 142 41 225 76 233 99 13 32 40 8 89 -80z m105 83 c0 -7 -3 -23 -6
-35 -8 -29 -44 -30 -69 -3 -17 19 -17 20 16 34 42 19 59 20 59 4z m-1777 -26
c30 -32 34 -60 12 -101 -30 -59 -152 -76 -218 -31 -57 39 -59 37 88 127 63 39
84 40 118 5z m-651 1 c26 -23 22 -40 -12 -58 -35 -18 -90 -20 -90 -3 0 15 60
78 74 78 5 0 18 -7 28 -17z m2562 -2 c7 -10 -22 -37 -30 -28 -9 8 3 37 15 37
5 0 12 -4 15 -9z m-2392 -51 c34 -16 68 -30 75 -30 6 0 13 -5 15 -11 3 -9 10
-9 27 0 34 19 48 8 55 -44 9 -59 -7 -109 -40 -124 -34 -15 -99 -14 -132 3 -62
33 -112 117 -112 192 0 55 20 57 112 14z m-339 -8 c25 -22 21 -39 -13 -57 -59
-31 -72 -17 -45 49 16 38 22 38 58 8z m2787 7 c0 -16 -56 -69 -74 -69 -23 0
-21 56 2 69 23 14 72 14 72 0z m-3067 -81 c22 -18 22 -18 -23 -12 -79 12 -96
30 -63 67 17 18 18 18 41 -9 13 -15 34 -36 45 -46z m487 36 c0 -33 -15 -61
-53 -101 -39 -41 -31 -42 19 -2 45 36 52 27 34 -41 -15 -55 -56 -80 -132 -80
-45 0 -59 4 -67 18 -13 24 -1 41 35 52 l29 8 -27 1 c-35 1 -41 13 -33 62 9 52
36 79 78 79 17 1 43 7 57 15 39 23 60 19 60 -11z m2466 -19 c-21 -33 -42 -41
-61 -25 -24 20 -17 37 23 53 46 19 61 7 38 -28z m1475 -137 c37 -473 16 -565
-207 -908 -158 -243 -187 -296 -226 -400 -60 -159 -80 -278 -86 -498 -4 -192
-4 -192 -30 -212 -33 -27 -44 -22 -60 26 -20 57 -16 195 7 312 52 252 126 438
262 657 41 66 90 147 109 180 18 33 57 99 85 147 86 144 112 298 100 593 -5
99 -8 194 -7 212 1 33 17 73 31 73 4 0 14 -82 22 -182z m-6343 69 c82 -80 112
-142 112 -237 0 -72 -27 -150 -52 -150 -19 0 -81 73 -104 125 -21 46 -76 330
-66 340 9 9 49 -20 110 -78z m3135 55 c41 -43 51 -82 33 -126 -26 -62 -104
-82 -182 -47 -43 19 -88 67 -78 82 3 5 33 22 67 38 34 15 73 40 86 55 31 33
41 33 74 -2z m-3636 -217 c73 -127 160 -275 192 -330 47 -79 62 -115 70 -167
6 -36 8 -73 5 -81 -8 -21 -36 -30 -45 -15 -6 9 -17 3 -40 -25 -17 -21 -37 -36
-44 -33 -7 2 -23 -7 -36 -21 -25 -26 -127 -99 -154 -109 -10 -4 -15 0 -15 11
0 15 -4 14 -34 -4 -53 -33 -63 -24 -21 19 28 29 34 40 22 40 -19 0 -23 30 -7
60 8 15 6 17 -10 13 -25 -7 -26 13 -3 39 21 24 16 27 -45 31 -58 4 -70 10 -54
30 17 20 0 77 -23 77 -42 0 -18 46 68 130 65 63 45 73 -41 21 -37 -22 -76 -43
-87 -46 -18 -6 -17 -4 4 14 29 26 8 29 -41 5 -30 -14 -36 -14 -70 1 -21 8 -38
18 -38 21 0 16 64 96 90 111 38 22 38 33 -1 33 -32 0 -32 0 -26 46 2 25 13 55
25 67 24 27 45 67 39 74 -3 2 -17 -3 -31 -13 -15 -9 -29 -14 -33 -11 -11 12
135 160 184 186 31 16 36 3 44 -125 6 -105 9 -116 48 -191 23 -44 55 -89 71
-102 29 -21 30 -23 30 -112 0 -50 4 -98 9 -107 11 -22 -5 -147 -26 -195 -9
-20 -13 -40 -10 -43 24 -25 141 68 195 155 49 77 49 93 -2 150 -27 30 -50 68
-57 93 -17 63 -53 119 -130 202 -38 41 -69 79 -69 85 0 39 -35 156 -56 187
-27 39 -25 68 3 62 10 -2 71 -96 150 -233z m2081 195 c24 -39 51 -119 98 -287
54 -196 59 -252 25 -307 -28 -45 -43 -36 -31 19 12 52 12 200 1 245 -6 19 -15
55 -21 79 -20 77 -20 37 0 -68 11 -56 20 -116 20 -134 0 -32 -26 -146 -35
-156 -14 -14 -14 15 2 84 16 77 16 80 -6 191 -13 62 -21 124 -17 137 4 17 -6
56 -29 116 -19 50 -35 93 -35 96 0 12 16 3 28 -15z m1195 -12 c23 -18 48 -42
56 -53 24 -33 184 -195 215 -218 18 -13 53 -23 95 -27 100 -11 182 -30 221
-50 19 -11 53 -21 75 -23 97 -11 285 -82 264 -101 -2 -2 -64 16 -138 41 -196
64 -330 86 -536 87 -99 0 -201 -5 -243 -13 -40 -7 -75 -11 -77 -9 -2 2 5 37
16 78 17 61 20 95 16 180 -3 58 -8 113 -12 123 -10 25 1 21 48 -15z m-616 11
l32 2 -5 -68 c-3 -37 -6 -81 -8 -98 l-4 -30 77 -3 c108 -4 114 -7 96 -41 -17
-33 -59 -53 -111 -53 -38 0 -64 20 -64 51 0 8 -11 -8 -25 -35 -32 -63 -31 -95
5 -169 17 -33 30 -65 30 -71 0 -25 59 -32 99 -11 19 9 27 26 37 72 7 33 13 77
13 98 1 21 11 57 23 80 12 23 36 80 52 126 17 47 37 86 44 89 7 2 20 -14 31
-38 10 -23 22 -37 25 -32 4 7 19 6 42 -4 44 -18 102 -11 138 17 32 25 36 24
36 -7 0 -37 -36 -84 -64 -84 -13 0 -39 -3 -57 -7 l-34 -7 45 -7 c36 -6 50 -3
73 12 23 17 28 17 33 5 7 -19 -20 -71 -48 -90 -56 -40 -163 4 -156 63 2 14 9
25 16 23 17 -3 15 9 -6 36 -18 23 -18 23 -30 -70 -7 -51 -16 -110 -19 -132 -5
-35 -4 -38 15 -32 24 8 40 -10 23 -27 -8 -8 -14 -8 -22 0 -9 9 -16 6 -30 -11
-10 -13 -49 -41 -86 -64 -37 -22 -98 -68 -135 -101 -36 -34 -69 -58 -71 -54
-3 5 -26 66 -52 136 -25 71 -64 170 -87 220 -45 104 -46 136 -7 262 l20 67 42
-8 c23 -4 56 -6 74 -5z m-141 -21 c10 -16 -51 -68 -80 -68 -27 0 -59 26 -53
44 2 6 25 14 51 18 27 4 51 9 54 12 9 9 20 7 28 -6z m-326 -141 c48 -122 80
-255 80 -326 0 -83 -12 -69 -34 39 -10 47 -38 151 -62 232 -24 81 -44 153 -44
160 1 25 30 -26 60 -105z m1605 49 c18 -13 17 -15 -4 -60 -42 -85 -149 -121
-231 -77 -48 25 -44 44 11 57 58 15 98 36 128 68 27 29 66 34 96 12z m-1305
-14 c0 -5 -6 -16 -13 -27 -16 -20 -33 -5 -23 20 6 16 36 21 36 7z m-227 -138
c40 -123 58 -247 40 -279 -8 -13 -12 6 -16 71 -4 65 -16 123 -45 212 -22 68
-35 121 -29 119 6 -2 29 -57 50 -123z m4443 79 c15 -103 -18 -359 -68 -513
-22 -69 -118 -274 -165 -351 -15 -26 -69 -112 -120 -192 -181 -285 -229 -435
-240 -749 -3 -87 -10 -158 -15 -158 -30 0 -39 165 -19 332 28 218 82 345 268
630 116 177 236 451 288 655 19 77 45 292 45 381 0 6 4 12 9 12 6 0 13 -21 17
-47z m-2633 -2 c16 -16 -17 -74 -67 -117 -42 -36 -90 -50 -132 -40 l-26 7 50
49 c28 27 56 66 62 86 12 36 13 36 57 31 25 -2 50 -10 56 -16z m-1753 -113
c40 -130 48 -254 19 -283 -15 -15 -16 -8 -16 82 1 77 -5 119 -26 194 -29 104
-31 119 -19 119 4 0 23 -51 42 -112z m1907 88 c4 -4 -30 -90 -41 -104 -14 -20
-97 -59 -137 -66 -56 -10 -65 5 -27 46 18 19 52 55 74 81 41 45 71 58 109 49
11 -2 21 -5 22 -6z m95 -25 c18 -16 30 -32 26 -36 -10 -10 -78 34 -78 51 0 22
16 17 52 -15z m87 -16 c33 -17 112 -105 105 -117 -17 -28 -144 72 -144 114 0
22 3 22 39 3z m2171 0 c0 -39 -63 -370 -86 -450 -35 -121 -72 -200 -189 -395
-250 -419 -304 -566 -321 -877 -4 -73 -11 -133 -15 -133 -5 0 -28 6 -51 14
-93 31 -285 85 -323 91 -63 11 -75 15 -75 31 0 24 46 107 73 133 l26 23 15
-37 c9 -20 20 -34 26 -30 5 3 19 36 30 73 11 37 32 97 45 133 24 63 27 65 55
61 16 -2 41 -1 55 2 25 6 25 8 25 107 0 97 15 159 39 159 22 0 17 34 -14 92
-39 72 -41 84 -19 109 15 17 14 21 -26 66 -36 42 -80 111 -80 128 0 3 12 5 26
5 21 0 25 3 18 18 -14 30 -8 69 20 125 52 107 137 182 326 287 118 66 300 187
360 239 49 44 60 49 60 26z m-2300 -45 c121 -86 188 -317 161 -561 -17 -161
-47 -264 -166 -569 -139 -357 -163 -432 -178 -552 -11 -91 -14 -101 -35 -109
-13 -5 -27 -7 -32 -4 -4 3 -2 37 6 77 23 124 36 162 185 543 22 55 57 174 80
265 22 91 46 188 54 215 40 135 59 320 44 414 -15 94 -40 143 -110 216 -33 35
-58 69 -54 74 9 15 13 14 45 -9z m-1925 1 c3 -5 1 -12 -5 -16 -5 -3 -10 1 -10
9 0 18 6 21 15 7z m374 -21 c47 -12 51 -22 19 -44 -39 -28 -118 -15 -118 19 0
20 30 47 46 41 7 -3 31 -10 53 -16z m383 -22 c18 -1 43 1 56 6 31 11 28 -6
-10 -43 -73 -71 -186 -34 -164 53 l6 26 40 -20 c21 -11 54 -21 72 -22z m-3794
15 c-2 -10 -27 -31 -55 -48 -29 -16 -53 -33 -53 -37 0 -3 25 1 55 9 59 17 76
13 55 -12 -10 -13 -9 -15 9 -15 29 0 26 -14 -5 -29 -26 -11 -26 -12 -9 -31 10
-11 16 -22 14 -23 -2 -2 -25 -17 -51 -33 -27 -16 -48 -32 -48 -36 0 -3 22 1
50 10 94 30 74 -8 -27 -53 -67 -30 -70 -49 -5 -30 59 18 72 19 72 2 0 -7 -29
-24 -64 -36 -36 -12 -73 -29 -83 -36 -29 -23 -47 -17 -62 17 -13 30 -13 33 7
46 28 18 28 42 2 42 -11 0 -20 2 -20 5 0 15 32 65 47 74 10 6 12 11 6 11 -8 0
-13 13 -13 30 0 32 -26 70 -48 70 -12 0 -12 3 -2 15 10 13 9 15 -9 15 -28 0
-27 7 7 39 28 26 113 48 195 50 31 1 38 -2 35 -16z m7042 -10 c0 -11 -128 -91
-235 -148 -49 -27 -110 -62 -135 -79 -67 -45 -160 -136 -181 -178 -11 -21 -23
-38 -27 -38 -4 0 -22 9 -39 20 -33 20 -38 30 -48 115 -3 28 -8 64 -11 81 l-6
31 69 0 c82 -1 137 17 293 91 177 84 320 131 320 105z m-2174 -88 c-5 -14 -42
-10 -51 5 -3 5 7 23 22 41 l28 33 3 -33 c2 -18 1 -39 -2 -46z m-1777 -22 c-1
-53 -3 -61 -9 -38 -11 45 -11 105 0 105 6 0 10 -28 9 -67z m401 47 c0 -48 -72
-77 -115 -47 -22 17 -12 37 18 37 12 0 33 7 47 14 36 20 50 19 50 -4z m1030
-20 c97 -20 291 -85 450 -150 l65 -26 3 -68 c2 -41 -2 -73 -9 -82 -8 -10 -8
-18 -1 -27 7 -9 6 -37 -4 -97 -31 -180 -62 -277 -207 -631 -41 -101 -80 -202
-87 -224 -20 -66 -30 -64 -30 5 0 84 -22 243 -55 400 -14 69 -29 174 -32 234
-5 94 -8 106 -20 91 -22 -30 -16 -170 13 -317 23 -114 25 -149 20 -244 -14
-249 -77 -461 -203 -671 -46 -77 -59 -109 -74 -185 -27 -135 -25 -242 6 -330
28 -81 69 -138 191 -269 103 -110 123 -150 124 -239 0 -75 -21 -120 -69 -145
-80 -41 -134 -13 -327 166 -102 94 -162 136 -306 213 -59 31 -119 71 -134 89
-38 45 -90 161 -103 232 -40 205 -79 299 -174 408 -190 219 -248 309 -297 454
-26 78 -33 120 -38 206 -7 151 -26 126 -26 -35 -1 -131 11 -197 50 -287 28
-63 29 -68 9 -51 -27 23 -82 125 -108 201 -82 239 -74 596 16 730 31 47 61 50
78 7 l13 -33 4 45 c3 42 1 47 -39 83 -50 45 -133 72 -187 62 -80 -15 -146
-103 -140 -187 4 -52 32 -72 80 -56 53 19 68 89 43 192 -7 27 -7 28 14 16 33
-17 43 -56 38 -139 -5 -91 -23 -111 -97 -111 -111 0 -174 129 -121 245 64 143
305 168 443 46 20 -17 45 -31 57 -31 27 0 27 17 1 25 -38 12 -20 69 52 160 98
124 326 266 498 310 189 49 430 55 620 15z m1788 -68 c24 -46 41 -90 38 -97
-8 -22 -154 -121 -248 -169 -125 -64 -249 -91 -381 -83 -115 7 -177 22 -177
41 0 21 83 92 142 122 29 15 126 53 216 85 188 67 245 96 298 150 21 22 45 38
54 37 8 -2 34 -40 58 -86z m-1117 -4 c46 -90 44 -331 -5 -563 -13 -60 -53
-207 -90 -325 -36 -118 -83 -282 -103 -363 -35 -145 -37 -149 -69 -165 -19 -8
-36 -14 -38 -11 -6 6 20 147 40 222 9 34 54 157 99 272 137 351 155 426 155
653 0 98 -6 186 -15 235 -8 43 -15 83 -15 88 0 19 20 -3 41 -43z m-5726 21 c4
-6 -2 -13 -14 -16 -12 -3 -21 -9 -21 -14 0 -11 -2 -11 38 0 52 15 37 -6 -17
-24 -64 -21 -134 -17 -139 8 -7 36 26 57 89 57 32 0 61 -5 64 -11z m5855 -36
c22 -27 72 -112 111 -193 39 -80 84 -158 99 -175 40 -42 50 -75 50 -166 0 -83
8 -96 36 -54 9 14 20 22 25 19 5 -3 9 -48 9 -100 0 -102 11 -119 44 -69 27 41
39 20 33 -52 -11 -113 -38 -140 -148 -150 -36 -4 -59 -10 -59 -18 0 -6 23 -24
50 -39 28 -15 50 -32 50 -37 0 -13 -58 -37 -122 -50 -85 -17 -87 -19 -45 -40
21 -11 35 -24 32 -29 -3 -5 -50 -22 -105 -39 -56 -18 -111 -42 -127 -56 l-28
-25 48 7 c56 7 61 -6 16 -38 -48 -34 -116 -50 -180 -43 l-56 6 7 37 c22 107
106 473 150 656 63 258 74 368 57 553 -16 167 -14 171 53 95z m-4100 -49 c0
-17 -22 -14 -28 4 -2 7 3 12 12 12 9 0 16 -7 16 -16z m1836 -31 c-11 -11 -19
6 -11 24 8 17 8 17 12 0 3 -10 2 -21 -1 -24z m-1987 -77 c32 -66 40 -130 20
-167 -16 -30 -29 -13 -29 39 0 26 -9 80 -19 120 -11 39 -16 72 -11 72 4 0 21
-29 39 -64z m5248 6 c-31 -32 -87 -67 -87 -54 0 11 89 82 104 82 5 0 -2 -12
-17 -28z m-6332 -81 c0 -17 -70 -55 -85 -46 -21 13 -10 41 23 52 41 13 62 11
62 -6z m6195 -14 c0 -20 -101 -76 -187 -104 -64 -21 -105 -26 -225 -30 -157
-6 -198 -1 -198 22 0 12 7 14 28 8 15 -4 79 -7 142 -7 145 -1 240 21 351 78
46 24 85 44 87 45 1 0 2 -5 2 -12z m-4850 -266 c-1 -20 -44 52 -69 119 -50
130 -34 135 19 6 28 -65 50 -121 50 -125z m1546 168 c10 -16 -28 -31 -64 -25
-34 5 -92 -2 -174 -20 -44 -10 -34 14 15 36 33 16 61 19 130 18 49 -1 90 -5
93 -9z m-1801 -68 c47 -22 73 -48 100 -105 17 -35 29 -44 83 -66 71 -28 82
-40 82 -90 0 -74 -2 -75 -119 -98 -130 -27 -163 -27 -183 -4 -27 31 -78 129
-98 188 -30 87 -27 120 16 160 40 39 62 41 119 15z m2070 -26 l35 -14 -22 -46
c-12 -25 -25 -42 -29 -38 -18 21 -37 113 -24 113 3 0 21 -7 40 -15z m-147 -96
c4 -47 -28 -89 -55 -73 -27 16 -28 65 -3 92 31 33 54 25 58 -19z m4773 -43
c41 -12 95 -37 121 -55 65 -44 121 -67 206 -84 41 -9 76 -18 79 -20 2 -3 -11
-30 -30 -60 -40 -62 -95 -103 -201 -152 l-73 -33 -54 44 c-30 24 -60 44 -66
44 -25 0 -12 19 15 22 l27 3 -25 15 c-19 11 -60 15 -165 15 l-140 0 -97 53
c-54 30 -98 57 -98 62 0 19 124 107 192 137 96 42 198 45 309 9z m-6988 2 c45
-26 62 -46 153 -186 116 -176 142 -224 113 -206 -8 4 -9 0 -4 -15 4 -13 2 -21
-5 -21 -6 0 -9 -4 -5 -10 9 -14 -17 -50 -37 -50 -9 0 -19 -6 -22 -12 -6 -15
-46 26 -46 48 0 7 -5 16 -10 19 -12 7 -3 -69 11 -96 12 -23 -39 -59 -52 -38
-5 8 -9 19 -9 25 0 6 -9 22 -21 35 -18 21 -19 25 -4 35 14 10 13 12 -4 17 -21
5 -128 130 -142 166 -5 13 -22 40 -38 60 -41 53 -45 73 -20 118 22 39 97 123
111 123 5 0 18 -6 31 -12z m2137 -144 c23 -9 39 -22 37 -28 -9 -30 -247 -126
-247 -99 0 5 27 26 60 47 33 21 68 52 77 67 20 34 20 34 73 13z m4388 -97 c77
-33 81 -36 107 -97 l15 -35 -6 44 c-8 55 10 48 38 -15 10 -24 21 -44 24 -44 2
0 1 19 -2 42 -8 47 6 46 26 -2 16 -38 7 -60 -23 -60 -42 0 -220 -49 -274 -75
-55 -28 -126 -92 -149 -137 -19 -38 -2 -37 43 2 87 77 277 149 411 157 117 7
197 -13 285 -70 90 -60 89 -59 148 -91 76 -41 168 -74 294 -105 l110 -28 3
-32 c5 -47 -39 -130 -98 -185 -77 -72 -152 -102 -298 -121 -120 -16 -128 -16
-265 6 -94 14 -163 19 -204 16 -64 -6 -113 -29 -113 -53 0 -10 10 -9 43 5 23
11 64 22 90 26 66 9 82 -7 98 -95 14 -81 -1 -173 -57 -352 -18 -59 -41 -136
-49 -170 -21 -78 -32 -91 -120 -135 -193 -97 -268 -173 -318 -323 -19 -55 -28
-68 -62 -88 -37 -21 -48 -23 -138 -18 -71 4 -120 13 -181 34 -101 35 -235 121
-290 187 -51 62 -91 85 -147 85 -51 0 -61 -8 -99 -77 -26 -48 -31 -50 -51 -26
-10 12 -13 44 -12 120 2 57 -2 134 -7 171 -50 330 -48 362 35 527 64 128 137
224 191 250 56 26 133 15 308 -46 172 -59 238 -69 317 -45 93 26 92 24 100
279 6 194 10 235 33 327 29 113 35 132 78 229 28 62 29 63 60 57 17 -3 65 -21
106 -39z m-4353 -77 c16 -8 35 -26 41 -39 7 -13 18 -27 25 -31 9 -6 -1 -30
-36 -92 -27 -45 -55 -91 -63 -100 -18 -22 -14 -22 31 -3 33 14 40 13 71 -2 48
-22 67 -72 55 -138 -16 -87 -57 -122 -125 -109 -19 3 -34 2 -34 -3 0 -5 27
-35 60 -68 33 -33 60 -66 60 -74 0 -23 -39 -79 -71 -102 l-30 -21 -70 22
c-104 31 -287 128 -291 153 -6 40 -24 28 -20 -13 4 -35 2 -40 -17 -40 -40 0
-91 34 -136 92 -46 60 -45 69 5 43 17 -9 30 -12 30 -8 0 3 -42 47 -93 97 -108
106 -149 173 -150 247 -1 71 25 103 87 107 61 4 132 -34 208 -111 68 -69 131
-114 136 -98 9 28 56 72 85 79 39 10 45 37 23 93 -16 40 -22 119 -8 119 4 -1
29 -16 57 -35 52 -35 76 -33 55 5 -9 16 -18 21 -36 17 -23 -4 -36 17 -14 25
28 9 138 1 165 -12z m-806 -191 c17 -48 14 -108 -5 -116 -19 -7 -90 13 -100
29 -4 6 0 15 9 19 8 5 27 29 41 54 15 25 31 45 35 45 5 0 14 -14 20 -31z
m-1293 -124 c18 -33 18 -35 -5 -99 -21 -61 -25 -115 -10 -166 4 -16 -3 -17
-84 -5 -42 6 -51 12 -87 59 -64 84 -52 145 48 244 l65 65 28 -32 c14 -18 35
-48 45 -66z m1208 -13 c10 -12 16 -25 15 -31 -9 -22 -111 -121 -121 -115 -15
9 -4 60 27 126 28 62 38 64 79 20z m117 -94 c6 -11 9 -36 6 -54 -6 -33 -5 -34
27 -34 23 0 41 -9 62 -31 25 -26 29 -38 28 -82 0 -32 -9 -68 -21 -92 -12 -22
-21 -56 -21 -75 0 -19 -12 -66 -26 -104 -19 -50 -23 -72 -16 -81 7 -9 8 -15 1
-19 -6 -4 -20 -20 -32 -37 -20 -29 -21 -31 -3 -26 60 18 74 19 80 3 3 -8 -4
-29 -15 -45 -26 -36 -26 -41 -2 -41 51 0 65 -24 31 -55 -11 -10 -20 -26 -20
-36 0 -9 -66 -85 -147 -169 -144 -149 -148 -152 -258 -206 -133 -65 -171 -73
-226 -49 -47 22 -56 46 -39 114 17 70 53 101 233 195 147 77 174 95 231 155
42 46 47 57 42 83 -6 31 -40 80 -107 154 -61 68 -73 99 -73 189 -1 59 5 98 23
150 21 62 33 79 107 153 73 72 86 81 104 72 11 -6 25 -20 31 -32z m2894 -57
c7 -12 -12 -24 -25 -16 -11 7 -4 25 10 25 5 0 11 -4 15 -9z m-3485 -33 c11
-13 23 -32 26 -44 12 -45 -57 -154 -98 -154 -14 0 -18 8 -18 36 0 19 -12 65
-26 101 -31 76 -27 83 48 83 36 0 52 -5 68 -22z m3546 -79 c91 -42 215 -182
281 -316 33 -67 38 -88 41 -159 4 -82 4 -82 -31 -121 -44 -47 -58 -37 -29 22
26 53 26 55 9 55 -36 0 -92 -90 -176 -282 -65 -150 -116 -233 -182 -293 -48
-45 -116 -93 -166 -119 l-32 -16 -63 51 c-83 68 -178 161 -178 174 0 5 30 37
67 71 l67 61 -29 56 c-16 30 -32 54 -35 52 -3 -2 -27 -46 -55 -99 -27 -53 -55
-96 -62 -96 -30 0 -121 132 -138 202 -7 25 -3 29 52 55 32 15 61 32 64 36 9
12 -6 84 -21 102 -19 23 -25 19 -60 -35 -18 -27 -36 -50 -40 -50 -16 0 -18 88
-4 160 9 41 32 115 52 164 l37 89 80 23 c44 12 141 50 215 85 85 39 163 67
213 77 84 17 84 24 2 42 -79 18 -82 20 -65 30 22 14 140 0 186 -21z m999 -105
c14 -22 12 -27 -44 -111 -55 -82 -101 -188 -101 -232 0 -37 -21 -33 -72 15
-64 60 -75 43 -20 -29 69 -90 100 -162 122 -286 11 -63 18 -116 16 -119 -3 -2
-33 12 -68 31 -106 60 -199 80 -347 75 -80 -3 -142 -10 -169 -20 -23 -9 -45
-12 -48 -7 -3 5 -2 30 2 56 5 37 16 57 51 93 29 29 48 60 55 88 9 36 14 43 29
38 11 -3 27 -9 37 -12 15 -4 20 5 31 63 14 68 42 136 61 148 6 4 10 -18 10
-61 0 -83 4 -80 102 63 60 88 119 153 140 153 3 0 11 -20 17 -44 6 -25 16 -48
22 -52 14 -8 29 13 29 41 0 27 55 141 88 185 l27 35 7 -44 c4 -24 14 -54 23
-67z m73 44 c-6 -18 -28 -21 -28 -4 0 9 7 16 16 16 9 0 14 -5 12 -12z m-3027
-60 c12 -29 11 -32 -19 -57 -18 -14 -32 -32 -32 -38 0 -13 -47 -30 -56 -20 -3
3 0 14 7 25 10 16 10 26 1 47 l-12 27 42 -3 c45 -3 44 -4 31 44 -9 30 24 9 38
-25z m-2173 0 c26 -18 73 -56 104 -86 31 -30 62 -51 68 -47 16 10 39 -13 67
-69 14 -28 43 -73 64 -100 44 -55 48 -72 19 -81 -31 -10 -61 4 -107 51 -36 36
-43 49 -43 82 l0 39 -66 7 c-82 8 -134 29 -141 56 -3 11 -12 20 -19 20 -8 0
-14 6 -14 14 0 8 -7 17 -16 20 -30 12 -5 126 28 126 5 0 30 -14 56 -32z m1565
-147 c30 -33 37 -48 37 -80 0 -54 -16 -61 -23 -10 -6 48 -45 93 -94 111 -45
16 -42 32 5 25 26 -5 48 -18 75 -46z m440 42 c-7 -2 -19 -2 -25 0 -7 3 -2 5
12 5 14 0 19 -2 13 -5z m483 -55 c83 -112 123 -215 164 -413 45 -221 75 -261
269 -360 224 -114 291 -187 291 -317 0 -93 -16 -150 -54 -192 -41 -47 -70 -52
-126 -24 -33 17 -56 40 -87 88 -71 110 -125 181 -213 281 -158 180 -200 238
-231 325 -19 52 -23 87 -28 309 -6 233 -8 253 -29 292 -48 91 -20 97 44 11z
m-1752 36 c20 -19 21 -74 2 -117 -17 -43 -116 -158 -150 -177 -40 -21 -48 -2
-41 100 10 144 13 158 46 165 16 4 32 11 35 16 17 28 85 36 108 13z m1600 -24
c88 -54 109 -185 79 -499 -6 -61 -7 -64 -41 -78 -19 -8 -103 -30 -186 -49
-143 -32 -263 -72 -296 -100 -46 -37 -211 -144 -224 -144 -9 0 -22 -13 -30
-29 -14 -27 -58 -51 -94 -51 -8 0 -29 -17 -47 -37 -28 -33 -34 -36 -49 -24
-14 12 -16 11 -16 -8 0 -14 -10 -26 -27 -33 -16 -7 -39 -23 -52 -35 -13 -13
-32 -23 -42 -23 -10 0 -39 -18 -64 -40 -25 -22 -52 -40 -58 -40 -18 0 -70 -67
-106 -135 -94 -177 -136 -215 -314 -285 -58 -23 -74 -43 -65 -86 5 -26 53 -57
100 -63 39 -6 43 -9 46 -37 2 -24 -4 -37 -30 -61 -51 -46 -102 -139 -111 -203
-3 -19 -7 -44 -9 -55 -3 -19 3 -20 117 -20 l120 0 87 43 c148 73 178 50 109
-84 -40 -78 -40 -79 -30 -143 12 -71 3 -95 -27 -70 -16 13 -17 12 -11 -11 21
-77 20 -98 -6 -124 -15 -14 -37 -26 -51 -26 -14 0 -78 -20 -142 -45 -96 -37
-128 -45 -183 -45 -41 0 -74 5 -87 14 -35 25 -99 36 -279 51 -182 15 -240 30
-281 76 -21 24 -11 66 27 112 33 39 49 47 49 21 0 -26 19 -5 29 34 8 29 6 59
-9 132 -22 105 -24 148 -10 170 8 12 15 10 42 -16 28 -26 50 -34 143 -52 114
-23 325 -43 325 -31 0 11 -46 20 -178 34 -67 8 -147 22 -177 31 -48 15 -55 21
-61 48 -9 51 13 152 58 270 23 61 46 113 50 114 15 7 8 23 -9 20 -24 -4 -35
51 -31 153 3 76 6 90 32 123 16 21 61 59 100 84 44 28 119 95 196 175 265 275
623 617 691 660 31 20 119 63 195 96 186 79 337 153 524 256 148 81 158 85
219 85 46 0 72 -5 95 -20z m-1426 -42 c10 -24 39 -65 64 -93 65 -72 72 -89 54
-124 -19 -35 -65 -91 -76 -91 -22 0 -140 197 -140 235 0 39 47 115 71 115 5 0
17 -19 27 -42z m582 3 c0 -6 -4 -13 -10 -16 -15 -9 -12 -42 6 -76 14 -28 19
-31 55 -27 47 4 50 -5 8 -22 -26 -11 -36 -11 -64 3 -21 10 -37 26 -41 42 -10
41 12 105 37 105 5 0 9 -4 9 -9z m224 -15 c34 -15 73 -71 56 -81 -5 -3 -20 0
-32 6 -33 18 -108 82 -108 92 0 10 38 2 84 -17z m-925 -228 c19 -33 26 -55 20
-59 -7 -4 -5 -17 6 -39 9 -17 15 -34 13 -36 -3 -2 -19 0 -36 5 -29 9 -31 8
-22 -9 16 -29 13 -45 -5 -30 -16 14 -35 6 -35 -16 0 -8 -4 -13 -8 -11 -5 1
-21 -13 -36 -30 -15 -18 -31 -33 -35 -33 -13 0 -99 177 -92 189 4 6 19 12 34
13 15 1 27 6 27 10 0 4 18 17 40 28 23 12 43 27 47 35 3 8 11 15 19 15 8 0 14
5 14 10 0 25 22 6 49 -42z m3603 -103 c3 -3 -3 -22 -13 -42 -10 -19 -21 -67
-25 -105 -4 -42 -12 -72 -19 -75 -16 -6 -74 23 -81 41 -6 15 50 143 73 168 15
17 53 24 65 13z m379 -155 c74 -14 177 -64 221 -107 40 -39 54 -80 41 -125
l-8 -27 -80 52 c-125 80 -203 108 -315 114 -85 5 -153 -2 -217 -22 -21 -7 -23
-4 -23 29 0 31 5 38 40 56 22 11 57 24 77 29 53 13 200 13 264 1z m-2353 -112
c-4 -32 -46 -39 -201 -36 l-132 3 53 18 c68 24 130 34 215 36 65 1 68 0 65
-21z m2312 -30 c61 -14 179 -71 213 -103 26 -25 27 -29 27 -130 0 -62 -4 -105
-10 -105 -5 0 -17 15 -27 33 -13 24 -18 28 -21 14 -2 -9 22 -74 53 -145 107
-238 200 -524 234 -715 27 -151 44 -322 35 -371 -8 -51 -39 -86 -75 -86 -35 0
-101 55 -97 81 2 9 -18 46 -43 81 -25 34 -59 86 -75 113 -16 28 -80 127 -143
220 -63 94 -143 229 -179 300 -35 72 -73 146 -83 165 -10 19 -19 44 -19 55 0
11 -13 74 -29 140 -36 149 -51 252 -51 358 0 89 4 102 35 110 28 8 201 -2 255
-15z m-2236 -92 c25 -36 85 -100 132 -143 97 -88 173 -177 206 -240 20 -38 21
-45 8 -53 -27 -17 -204 -11 -317 11 -132 25 -153 35 -93 43 168 20 175 25 30
21 -158 -5 -253 -17 -314 -41 -22 -8 -94 -20 -160 -25 -83 -7 -137 -17 -176
-32 -114 -47 -496 -252 -537 -290 -48 -44 -103 -125 -103 -152 0 -17 2 -16 24
4 29 28 41 15 31 -36 -5 -26 -25 -55 -68 -101 l-62 -64 -2 -71 c-2 -82 -10
-93 -98 -133 -41 -18 -188 -44 -255 -44 -5 0 -10 16 -10 37 0 38 54 148 86
174 23 19 54 88 54 121 0 41 23 55 105 69 71 11 75 13 58 29 -15 14 -21 14
-43 3 -30 -16 -84 -17 -111 -3 -27 15 -24 44 11 84 28 31 35 34 100 38 40 2
75 9 82 17 11 11 5 13 -34 9 -67 -8 -74 2 -37 48 17 21 59 86 92 143 46 77 76
114 117 147 30 24 61 44 69 44 8 0 22 6 30 13 24 20 138 87 148 87 4 0 19 12
32 26 19 20 31 24 53 20 19 -4 28 -1 28 8 0 16 34 47 79 72 19 10 48 34 64 51
37 42 153 119 208 139 31 11 107 18 254 23 116 4 224 9 242 9 28 2 36 -5 77
-62z m1661 -73 c-9 -59 -28 -91 -60 -99 -14 -3 -25 -11 -25 -16 0 -6 9 -7 23
-3 63 19 64 19 71 -20 4 -20 7 -154 7 -297 -1 -152 2 -257 8 -254 17 11 22
-66 15 -214 -6 -141 4 -311 36 -605 7 -58 7 -110 1 -148 -10 -55 -9 -59 21
-103 30 -45 50 -55 28 -15 -14 26 -5 42 18 34 13 -5 12 -1 -5 19 -20 21 -23
35 -23 114 0 155 18 175 52 59 13 -44 25 -70 29 -63 13 21 46 -20 76 -93 24
-57 31 -67 48 -63 28 7 154 -73 182 -115 26 -38 31 -106 10 -135 -12 -16 -19
-12 -82 44 -39 34 -88 71 -110 82 -21 11 -66 46 -98 77 -33 31 -55 47 -49 36
17 -32 93 -99 145 -129 50 -28 142 -106 166 -138 12 -17 9 -31 -24 -111 -72
-175 -134 -286 -198 -354 -37 -40 -46 -41 -78 -7 -39 42 -125 93 -244 144
-220 95 -229 100 -216 113 8 8 51 12 126 12 63 0 115 3 115 6 0 12 -53 30
-116 38 -42 6 -88 6 -132 -1 -81 -12 -138 -7 -216 22 -83 32 -129 77 -160 158
-34 92 -59 182 -52 189 3 4 17 -4 31 -17 30 -28 32 -19 5 21 -39 54 -129 254
-144 319 -8 36 -24 135 -36 220 -22 173 -46 279 -87 396 -38 109 -36 167 12
334 30 107 39 157 43 243 2 59 8 107 12 107 4 0 46 -33 93 -73 116 -99 167
-126 267 -137 44 -5 112 -21 151 -35 129 -46 159 -32 140 65 -7 33 -21 85 -31
116 -25 71 -25 106 -2 126 9 9 54 34 99 57 48 25 85 50 88 62 8 24 54 79 67
79 5 0 7 -19 3 -47z m875 -27 c0 -16 -18 -31 -27 -22 -8 8 5 36 17 36 5 0 10
-6 10 -14z m-3503 -776 c78 -169 96 -237 74 -279 -7 -12 -17 -19 -22 -15 -7 4
-7 10 0 17 17 17 13 26 -7 20 -30 -7 -109 76 -117 124 -4 21 -22 79 -41 130
-39 107 -42 124 -13 92 19 -23 20 -23 10 -2 -20 41 -11 48 13 10 36 -58 41
-57 11 2 -21 43 -24 55 -13 62 7 5 17 8 21 6 5 -1 42 -77 84 -167z m-166 84
c5 -15 7 -29 5 -32 -3 -3 -9 4 -13 14 -6 17 -8 16 -14 -6 -7 -28 10 -76 43
-123 13 -18 23 -34 24 -37 0 -3 17 -39 36 -80 37 -77 59 -141 77 -220 5 -25
13 -54 17 -65 l7 -20 -17 20 c-17 20 -17 19 -11 -7 3 -16 1 -28 -4 -28 -10 0
-24 55 -21 75 8 40 -3 106 -21 129 -28 36 -32 29 -15 -27 40 -133 -48 45 -123
251 -33 89 -37 116 -21 156 12 34 38 33 51 0z m-558 -82 c3 -4 3 -20 0 -35 -5
-23 -10 -28 -31 -25 -37 4 -52 33 -27 52 22 17 51 21 58 8z m847 -252 c0 -16
-4 -30 -10 -30 -5 0 -10 14 -10 30 0 17 5 30 10 30 6 0 10 -13 10 -30z m-115
-38 c-8 -8 -35 20 -35 37 1 12 5 11 21 -8 11 -13 17 -26 14 -29z m128 -44 c-8
-43 -23 -60 -23 -26 0 32 9 58 21 58 5 0 6 -15 2 -32z m62 -33 c16 -53 12 -93
-6 -64 -6 10 -11 6 -18 -14 -10 -25 -36 -45 -46 -36 -2 2 7 27 21 54 13 28 24
61 23 75 -3 59 6 54 26 -15z m-101 24 c-3 -5 -23 -9 -45 -9 -21 0 -39 4 -39 9
0 5 20 9 45 9 25 0 43 -4 39 -9z m-144 -124 c0 -14 -4 -25 -10 -25 -5 0 -10
11 -10 25 0 14 5 25 10 25 6 0 10 -11 10 -25z m178 -37 c-7 -19 -38 -22 -38
-4 0 10 9 16 21 16 12 0 19 -5 17 -12z m3135 -572 c12 -13 32 -41 45 -61 22
-37 23 -42 16 -196 -8 -177 -1 -210 48 -235 56 -29 88 2 138 132 16 43 30 83
30 88 0 23 -37 -29 -70 -97 -30 -61 -39 -72 -63 -75 -53 -6 -56 4 -55 189 l1
168 28 -19 c15 -11 57 -33 93 -50 51 -22 66 -26 66 -15 0 23 57 19 70 -4 5
-11 10 -60 10 -110 0 -113 -18 -166 -145 -426 -102 -208 -145 -266 -212 -284
-47 -13 -93 -14 -113 -1 -13 8 -12 11 4 23 21 15 18 19 -36 36 -39 13 -105 78
-91 91 12 12 243 73 249 67 10 -9 -6 -44 -37 -83 -32 -41 -32 -52 0 -32 30 19
64 93 57 123 -9 36 -55 33 -193 -11 l-112 -36 -46 26 c-25 15 -45 33 -45 41 0
8 27 54 60 102 33 47 60 91 60 98 0 6 13 29 30 52 16 22 35 64 41 93 6 30 24
83 39 119 15 36 36 84 45 106 9 22 18 67 20 100 4 106 23 129 68 81z m995
-766 c12 -18 22 -39 22 -46 0 -8 -22 -25 -50 -39 -55 -28 -63 -21 -25 23 32
39 32 45 -5 37 -35 -8 -38 2 -9 39 25 32 37 30 67 -14z m60 -131 c16 -44 8
-176 -18 -287 -22 -94 -56 -178 -164 -407 -41 -88 -71 -161 -66 -163 6 -2 10
-10 10 -19 0 -26 -78 -166 -122 -220 -89 -108 -247 -208 -370 -234 -66 -14
-198 -5 -261 17 -23 9 -89 17 -147 20 -94 5 -124 11 -287 65 l-183 59 -203 0
c-244 0 -263 6 -206 63 31 31 105 64 117 52 3 -2 -1 -18 -8 -35 -7 -17 -11
-33 -8 -35 3 -3 34 8 69 24 80 37 109 45 109 32 0 -5 -4 -13 -10 -16 -5 -3
-10 -12 -10 -19 0 -11 16 -9 73 6 50 14 90 18 130 15 58 -5 84 -16 60 -24 -7
-3 -23 -13 -35 -23 -23 -19 -21 -19 130 -20 154 0 201 -12 96 -26 -64 -8 -57
-18 25 -35 48 -10 64 -8 156 16 116 31 149 29 93 -5 -21 -12 -38 -26 -38 -31
0 -27 133 11 211 61 63 39 89 48 89 31 0 -5 -7 -14 -15 -21 -18 -15 -19 -30
-2 -30 28 0 119 51 162 91 25 23 67 71 93 107 56 75 67 62 22 -27 -16 -34 -25
-61 -19 -61 6 0 34 24 63 54 55 55 96 123 96 155 0 26 10 51 21 51 5 0 9 -9 9
-19 0 -29 17 -34 24 -8 4 12 9 72 12 132 3 61 8 121 10 134 l5 25 30 -32 c17
-18 34 -30 39 -27 4 3 2 26 -6 52 -18 60 -19 206 -1 201 10 -4 30 -51 51 -123
l6 -20 13 20 c19 31 15 198 -7 273 l-19 63 36 52 c55 79 108 138 121 134 6 -2
17 -19 24 -38z m-4993 -19 c17 -19 17 -20 0 -26 -20 -8 -66 14 -73 34 -6 20
53 14 73 -8z m2890 -1004 c16 -12 18 -20 9 -62 -8 -45 -11 -49 -34 -46 -14 2
-42 13 -63 25 -48 27 -47 55 3 79 42 22 60 22 85 4z"/>
<path d="M4939 11251 c-13 -11 -21 -22 -18 -25 3 -3 16 5 29 19 28 30 22 33
-11 6z"/>
<path d="M5475 11239 c-9 -17 -15 -33 -13 -35 3 -2 12 12 21 31 21 43 13 47
-8 4z"/>
<path d="M4609 11193 c-13 -16 -12 -17 4 -4 9 7 17 15 17 17 0 8 -8 3 -21 -13z"/>
<path d="M5537 11098 c-38 -96 -47 -121 -38 -113 12 13 53 116 48 122 -3 2 -7
-2 -10 -9z"/>
<path d="M4696 10945 c-9 -26 -7 -32 5 -12 6 10 9 21 6 23 -2 3 -7 -2 -11 -11z"/>
<path d="M4309 9907 c-40 -34 -64 -73 -109 -183 -23 -54 -66 -153 -96 -219
-30 -66 -54 -124 -54 -129 0 -18 122 2 178 30 83 41 128 79 173 146 69 101 89
154 89 237 0 70 -1 74 -34 107 -28 28 -41 34 -77 34 -31 0 -52 -7 -70 -23z
m-35 -180 c5 -32 2 -55 -13 -87 -11 -25 -18 -47 -15 -49 8 -8 21 13 34 52 14
46 34 56 60 32 11 -10 26 -15 36 -11 9 4 25 4 36 0 25 -8 17 -34 -31 -97 -35
-47 -136 -126 -147 -115 -3 3 2 23 11 44 22 53 2 31 -30 -33 -28 -56 -40 -66
-92 -76 -44 -9 -43 3 7 114 22 49 40 91 40 93 0 15 81 176 88 176 6 0 13 -19
16 -43z"/>
<path d="M4326 9614 c-10 -25 -7 -34 9 -34 9 0 15 9 15 25 0 28 -15 34 -24 9z"/>
<path d="M4557 9753 c-4 -3 -7 -16 -6 -27 0 -19 1 -19 10 3 10 24 8 36 -4 24z"/>
<path d="M3130 9331 c0 -6 5 -13 10 -16 6 -3 10 1 10 9 0 9 -4 16 -10 16 -5 0
-10 -4 -10 -9z"/>
<path d="M2660 9310 c0 -5 5 -10 11 -10 5 0 7 5 4 10 -3 6 -8 10 -11 10 -2 0
-4 -4 -4 -10z"/>
<path d="M4695 8710 c3 -5 8 -10 11 -10 2 0 4 5 4 10 0 6 -5 10 -11 10 -5 0
-7 -4 -4 -10z"/>
<path d="M4355 7669 c-10 -15 3 -25 16 -12 7 7 7 13 1 17 -6 3 -14 1 -17 -5z"/>
<path d="M5935 8995 c-4 -16 -11 -45 -17 -63 -16 -53 -1 -50 22 4 15 35 19 54
12 69 -9 18 -10 18 -17 -10z"/>
<path d="M5990 8906 c0 -7 -19 -42 -43 -77 -62 -92 -65 -97 -42 -79 66 52 132
170 95 170 -5 0 -10 -6 -10 -14z"/>
<path d="M5991 8776 c-19 -20 -31 -39 -27 -43 9 -9 69 52 65 66 -3 7 -19 -4
-38 -23z"/>
<path d="M5653 8559 c-87 -84 -184 -169 -215 -189 -84 -55 -169 -84 -223 -77
-30 5 -45 3 -45 -5 0 -7 24 -9 80 -5 60 4 91 11 125 31 77 42 267 181 320 233
57 55 130 151 122 159 -3 3 -77 -63 -164 -147z"/>
<path d="M1770 7474 c-69 -32 -89 -50 -83 -73 3 -13 -11 -32 -45 -61 -53 -46
-58 -70 -13 -70 37 0 131 29 131 40 0 5 16 17 35 26 20 9 66 45 103 80 55 52
64 65 52 74 -29 19 -122 11 -180 -16z"/>
<path d="M5320 7360 c0 -5 14 -10 31 -10 17 0 28 4 24 10 -3 6 -17 10 -31 10
-13 0 -24 -4 -24 -10z"/>
<path d="M8342 6646 c-43 -39 -95 -128 -117 -203 -30 -100 -8 -97 25 3 24 76
37 99 99 172 52 62 49 78 -7 28z"/>
<path d="M6455 6685 c-5 -2 -22 -6 -37 -9 -23 -5 -27 -12 -33 -57 -8 -60 9
-91 20 -37 12 57 31 78 71 78 31 0 35 2 24 15 -12 14 -24 17 -45 10z"/>
<path d="M6530 6666 c0 -8 8 -17 18 -19 13 -4 12 -5 -5 -6 -35 -2 -38 -21 -3
-21 29 0 31 -2 29 -37 -2 -43 21 -110 28 -81 6 26 -15 129 -32 155 -17 26 -35
30 -35 9z"/>
<path d="M6450 6610 c0 -5 5 -10 10 -10 6 0 10 5 10 10 0 6 -4 10 -10 10 -5 0
-10 -4 -10 -10z"/>
<path d="M6500 6600 c0 -5 5 -10 11 -10 5 0 7 5 4 10 -3 6 -8 10 -11 10 -2 0
-4 -4 -4 -10z"/>
<path d="M6450 6530 c0 -5 5 -10 10 -10 6 0 10 5 10 10 0 6 -4 10 -10 10 -5 0
-10 -4 -10 -10z"/>
<path d="M6495 6520 c3 -5 13 -10 21 -10 8 0 14 5 14 10 0 6 -9 10 -21 10 -11
0 -17 -4 -14 -10z"/>
<path d="M6408 6473 c7 -3 16 -2 19 1 4 3 -2 6 -13 5 -11 0 -14 -3 -6 -6z"/>
<path d="M5728 6408 l-26 -63 -54 3 c-59 4 -58 -14 2 -20 34 -3 35 -4 32 -40
-3 -35 -1 -38 23 -38 14 0 39 -10 55 -22 40 -29 49 -16 16 22 -37 45 -35 63 9
58 19 -2 35 -1 35 3 0 4 -16 13 -35 19 -19 6 -35 12 -35 13 0 1 9 27 20 56 11
30 17 58 14 62 -13 22 -33 4 -56 -53z"/>
<path d="M6390 6419 c0 -5 5 -7 10 -4 6 3 10 8 10 11 0 2 -4 4 -10 4 -5 0 -10
-5 -10 -11z"/>
<path d="M6530 6376 c0 -9 5 -16 10 -16 6 0 10 4 10 9 0 6 -4 13 -10 16 -5 3
-10 -1 -10 -9z"/>
<path d="M6395 6290 c-3 -5 1 -10 9 -10 8 0 18 5 21 10 3 6 -1 10 -9 10 -8 0
-18 -4 -21 -10z"/>
<path d="M5566 6202 c-6 -10 25 -80 57 -127 l25 -37 -40 -40 c-43 -43 -54 -45
-39 -5 12 31 -2 45 -25 26 -8 -6 -16 -10 -19 -7 -4 4 -52 143 -61 176 -2 6
-13 12 -24 12 -18 0 -20 -6 -20 -70 l0 -70 -61 0 c-69 0 -99 -12 -99 -40 0
-27 49 -56 107 -64 25 -3 51 -14 58 -23 11 -15 13 -15 24 5 15 28 37 28 51 2
18 -33 8 -73 -22 -90 -24 -13 -32 -13 -70 0 -33 12 -44 21 -46 40 -8 53 -44
69 -40 18 3 -32 3 -32 -57 -40 -199 -26 -183 -96 23 -98 41 0 64 -4 66 -12 23
-85 39 -128 47 -128 13 0 11 26 -6 90 -13 50 -13 56 2 68 23 17 58 15 73 -3 7
-8 18 -40 25 -70 l13 -55 -36 -16 c-49 -20 -92 -62 -92 -90 0 -52 82 -110 172
-121 l50 -6 -5 -56 -6 -56 27 57 c22 45 33 57 56 62 81 17 104 79 44 117 -44
27 -155 24 -188 -6 l-22 -20 22 -17 c12 -10 30 -18 40 -18 28 0 50 -11 50 -25
0 -50 -182 2 -208 60 -15 33 -4 56 40 83 62 38 76 38 235 0 75 -18 113 -84
113 -197 0 -91 16 -100 25 -13 7 75 20 141 29 149 3 4 14 -1 24 -11 18 -15 22
-15 73 6 30 11 61 28 69 36 13 13 10 14 -22 8 -21 -4 -38 -5 -38 -2 0 2 16 14
35 26 35 22 46 40 23 40 -6 0 -43 -19 -80 -41 -38 -23 -71 -39 -74 -36 -3 2 6
32 20 66 44 104 26 125 -21 24 -27 -56 -58 -81 -88 -69 -14 5 -14 8 0 37 9 17
41 57 71 90 30 32 74 90 99 129 47 73 51 76 148 90 l52 8 -67 1 c-38 0 -68 5
-68 11 0 5 5 29 12 53 32 123 -53 140 -151 31 -41 -47 -54 -55 -77 -52 -36 4
-41 30 -24 106 13 58 6 78 -16 48 -14 -19 -15 -19 -47 11 -17 17 -42 36 -54
42 -25 13 -79 15 -87 3z m89 -26 c33 -23 68 -102 60 -136 -4 -17 -11 -30 -15
-30 -10 0 -84 123 -94 158 -6 17 -3 22 11 22 10 0 28 -6 38 -14z m338 -125
c-3 -73 -21 -110 -66 -138 -23 -14 -59 -41 -79 -61 l-38 -36 0 27 c0 89 124
269 175 253 6 -2 9 -22 8 -45z m-585 -23 c7 -7 12 -20 12 -30 0 -15 -8 -18
-43 -18 -45 0 -87 22 -87 46 0 18 100 20 118 2z m292 -84 c0 -7 11 -30 25 -50
28 -41 34 -94 10 -94 -35 0 -88 122 -71 166 5 13 9 14 21 4 8 -7 15 -18 15
-26z m-93 -36 c-3 -8 -6 -5 -6 6 -1 11 2 17 5 13 3 -3 4 -12 1 -19z m323 -35
c0 -5 -20 -34 -44 -66 -45 -61 -86 -97 -86 -77 0 21 23 55 68 103 44 45 62 56
62 40z m-595 -53 c0 -24 -3 -25 -70 -28 -50 -2 -76 1 -90 12 -19 14 -19 15 15
30 21 9 57 15 90 13 51 -2 55 -4 55 -27z m253 13 c5 -18 -10 -16 -34 2 -18 15
-18 15 5 13 14 -2 26 -9 29 -15z m-178 -12 c0 -11 -26 -22 -34 -14 -12 12 -5
23 14 23 11 0 20 -4 20 -9z m145 -8 c61 -29 38 -43 -37 -22 -37 10 -45 18 -31
32 10 11 30 8 68 -10z m85 7 c0 -5 -4 -10 -10 -10 -5 0 -10 5 -10 10 0 6 5 10
10 10 6 0 10 -4 10 -10z m-90 -64 c0 -8 -4 -17 -9 -21 -12 -7 -24 12 -16 25 9
15 25 12 25 -4z m60 -15 c-12 -23 -29 -35 -37 -27 -7 7 26 46 39 46 5 0 4 -9
-2 -19z m170 15 c0 -3 -4 -8 -10 -11 -5 -3 -10 -1 -10 4 0 6 5 11 10 11 6 0
10 -2 10 -4z m-100 -21 c0 -3 -7 -13 -15 -22 -8 -10 -21 -26 -28 -37 -8 -10
-19 -17 -25 -15 -16 5 34 79 53 79 8 0 15 -2 15 -5z m78 -28 c6 -29 -25 -67
-54 -67 -37 0 -41 27 -8 61 31 32 57 34 62 6z m72 -144 c0 -17 -19 -35 -29
-29 -18 12 -12 36 9 36 11 0 20 -3 20 -7z m-119 -29 c10 -9 19 -25 19 -35 0
-23 -44 -53 -65 -45 -14 5 -14 8 1 31 13 20 14 28 4 40 -12 14 -15 14 -30 0
-19 -17 -90 -21 -90 -5 0 19 63 40 103 36 21 -2 47 -12 58 -22z"/>
<path d="M4856 6068 c-3 -13 -6 -34 -6 -47 l0 -24 32 25 c38 30 46 48 21 48
-11 0 -24 5 -30 11 -7 7 -12 4 -17 -13z"/>
<path d="M5076 5752 c12 -9 36 -25 54 -35 43 -23 33 -31 -20 -17 -24 6 -46 8
-51 3 -4 -4 35 -21 87 -37 52 -16 97 -26 102 -22 9 10 -48 59 -113 97 -56 32
-94 40 -59 11z"/>
<path d="M2360 6065 c0 -10 40 -85 46 -85 3 0 2 10 -2 23 -6 22 -6 22 21 -3
24 -22 26 -23 17 -4 -11 21 -82 81 -82 69z"/>
<path d="M2540 6051 c0 -5 5 -13 10 -16 6 -3 10 -2 10 4 0 5 -4 13 -10 16 -5
3 -10 2 -10 -4z"/>
<path d="M2520 5961 c0 -5 5 -13 10 -16 6 -3 10 -2 10 4 0 5 -4 13 -10 16 -5
3 -10 2 -10 -4z"/>
<path d="M2555 5870 c-3 -5 -1 -10 4 -10 6 0 11 5 11 10 0 6 -2 10 -4 10 -3 0
-8 -4 -11 -10z"/>
<path d="M8622 4433 c5 -21 21 -49 34 -64 29 -31 30 -39 4 -81 -22 -37 -25
-48 -10 -48 5 0 16 14 25 30 20 39 31 38 58 -7 16 -28 23 -33 25 -20 2 10 -6
34 -17 53 -26 44 -26 49 0 85 21 30 12 41 -11 14 -20 -25 -37 -18 -71 30 -18
25 -36 45 -40 45 -4 0 -3 -17 3 -37z"/>
<path d="M8355 4081 c-3 -5 2 -11 10 -15 8 -3 17 -1 20 3 3 5 -2 11 -10 15 -8
3 -17 1 -20 -3z"/>
<path d="M8545 4050 c-3 -5 1 -10 9 -10 9 0 16 5 16 10 0 6 -4 10 -9 10 -6 0
-13 -4 -16 -10z"/>
<path d="M8448 4038 c9 -9 15 -9 24 0 9 9 7 12 -12 12 -19 0 -21 -3 -12 -12z"/>
<path d="M8500 4040 c0 -5 4 -10 9 -10 6 0 13 5 16 10 3 6 -1 10 -9 10 -9 0
-16 -4 -16 -10z"/>
<path d="M4543 5939 c-15 -15 -4 -49 17 -49 28 0 45 27 30 45 -15 18 -32 19
-47 4z"/>
<path d="M4612 5895 c-11 -25 -11 -26 10 -23 15 2 23 10 23 22 0 29 -20 30
-33 1z"/>
<path d="M4415 5878 c10 -46 19 -52 41 -27 19 21 19 21 -5 40 -34 28 -44 24
-36 -13z"/>
<path d="M4480 5832 c-28 -23 -39 -92 -16 -111 13 -11 16 -8 22 29 8 46 27 72
49 64 23 -9 18 -42 -10 -69 -31 -28 -20 -39 29 -29 50 9 66 31 32 44 -23 8
-25 12 -16 35 18 46 13 55 -29 55 -22 0 -48 -8 -61 -18z"/>
<path d="M4633 5843 c-14 -5 -18 -39 -5 -47 4 -2 15 9 24 25 17 29 11 35 -19
22z"/>
<path d="M4353 5698 c-28 -31 -45 -66 -38 -78 4 -6 12 -7 18 -3 7 4 30 10 52
13 30 4 43 12 55 33 14 26 14 29 -4 43 -28 20 -59 17 -83 -8z"/>
<path d="M4495 5690 c3 -5 11 -10 16 -10 6 0 7 5 4 10 -3 6 -11 10 -16 10 -6
0 -7 -4 -4 -10z"/>
<path d="M4460 5655 c-7 -9 -15 -37 -18 -64 -4 -45 -2 -50 27 -70 37 -27 51
-20 83 42 27 54 18 83 -30 96 -47 14 -47 14 -62 -4z"/>
<path d="M4613 5658 c-33 -16 -28 -31 17 -50 34 -14 40 -21 40 -47 0 -33 -22
-51 -64 -51 -36 0 -40 -15 -9 -40 20 -16 36 -20 58 -16 49 10 68 38 73 105 4
54 2 62 -21 85 -28 27 -57 32 -94 14z"/>
<path d="M4355 5600 c-3 -5 0 -10 8 -10 8 0 20 -7 27 -15 15 -18 30 -11 30 16
0 14 -7 19 -29 19 -17 0 -33 -4 -36 -10z"/>
<path d="M4582 5575 c-21 -47 -17 -54 28 -43 44 12 55 40 21 58 -29 15 -37 13
-49 -15z"/>
<path d="M4542 5475 c1 -16 9 -30 16 -33 18 -6 15 33 -4 49 -14 11 -15 9 -12
-16z"/>
<path d="M6450 5040 c-131 -67 -193 -123 -188 -168 4 -39 39 -40 99 -2 65 42
240 231 212 230 -4 -1 -60 -27 -123 -60z"/>
<path d="M6640 4932 c-81 -53 -206 -181 -213 -217 -6 -35 -2 -45 21 -45 31 0
80 38 119 93 21 30 60 84 86 121 27 36 47 70 45 75 -1 5 -28 -7 -58 -27z"/>
<path d="M6816 4830 c-73 -68 -201 -268 -182 -287 3 -3 17 -3 31 1 29 7 89 84
157 203 76 129 74 156 -6 83z"/>
<path d="M2915 2851 c41 -29 136 -56 279 -81 126 -22 140 -26 131 -40 -10 -16
-160 -60 -250 -74 -74 -11 -85 -15 -62 -21 60 -16 237 27 374 90 41 19 115 44
164 56 49 12 89 26 89 31 0 10 -38 6 -165 -19 -112 -22 -235 -12 -405 32 -201
52 -191 51 -155 26z"/>
<path d="M3548 2729 c-20 -5 -81 -31 -135 -58 -54 -26 -105 -51 -113 -54 -8
-3 -3 -6 12 -6 15 -1 74 21 130 48 57 27 122 55 146 61 73 19 38 28 -40 9z"/>
<path d="M3320 4670 c0 -5 5 -10 11 -10 5 0 7 5 4 10 -3 6 -8 10 -11 10 -2 0
-4 -4 -4 -10z"/>
<path d="M7371 3876 c-19 -21 -22 -31 -16 -65 9 -53 19 -58 50 -26 21 20 26
33 23 68 -4 50 -24 59 -57 23z"/>
<path d="M7552 3873 c-45 -39 -30 -89 19 -63 30 17 38 80 10 80 -5 0 -18 -8
-29 -17z"/>
<path d="M7485 3790 c-3 -5 -1 -10 4 -10 6 0 11 5 11 10 0 6 -2 10 -4 10 -3 0
-8 -4 -11 -10z"/>
<path d="M7606 3454 c-5 -12 -14 -15 -40 -10 -36 7 -46 -3 -46 -50 0 -19 5
-24 24 -24 14 0 28 4 31 10 3 5 19 7 35 3 26 -5 31 -2 41 23 12 32 2 57 -23
62 -9 2 -18 -4 -22 -14z"/>
<path d="M4885 4331 c20 -20 215 -40 215 -22 0 5 -39 12 -87 16 -49 3 -99 8
-113 11 -17 4 -22 2 -15 -5z"/>
<path d="M6765 3897 c-4 -10 -5 -21 -1 -24 10 -10 18 4 13 24 -4 17 -4 17 -12
0z"/>
<path d="M6772 3550 c0 -19 2 -27 5 -17 2 9 2 25 0 35 -3 9 -5 1 -5 -18z"/>
<path d="M6761 3371 c-1 -27 2 -32 11 -23 8 8 8 17 0 34 -10 22 -11 21 -11
-11z"/>
<path d="M6773 3190 c0 -41 2 -58 4 -37 2 20 2 54 0 75 -2 20 -4 3 -4 -38z"/>
<path d="M6773 3040 c0 -30 2 -43 4 -27 2 15 2 39 0 55 -2 15 -4 2 -4 -28z"/>
<path d="M6782 2860 c0 -14 2 -19 5 -12 2 6 2 18 0 25 -3 6 -5 1 -5 -13z"/>
<path d="M6771 2806 c-10 -12 -8 -16 9 -21 28 -9 38 2 19 21 -14 13 -17 13
-28 0z"/>
<path d="M6840 2613 c0 -18 20 -66 25 -61 3 3 -1 20 -9 39 -9 19 -15 29 -16
22z"/>
<path d="M4106 3475 c4 -8 8 -15 10 -15 2 0 4 7 4 15 0 8 -4 15 -10 15 -5 0
-7 -7 -4 -15z"/>
<path d="M4140 3405 c0 -9 30 -65 35 -65 7 0 -16 60 -26 66 -5 3 -9 2 -9 -1z"/>
<path d="M4190 3351 c0 -6 4 -13 10 -16 6 -3 7 1 4 9 -7 18 -14 21 -14 7z"/>
<path d="M4160 3291 c20 -38 48 -34 34 4 -5 13 -8 14 -15 3 -7 -10 -9 -10 -9
0 0 6 -5 12 -10 12 -7 0 -7 -6 0 -19z"/>
<path d="M4088 3242 c17 -38 34 -52 40 -33 2 5 -6 19 -17 30 -12 12 -21 26
-21 31 0 6 -4 10 -10 10 -5 0 -1 -17 8 -38z"/>
<path d="M7460 2198 c0 -35 -9 -124 -20 -198 -37 -241 -59 -299 -131 -347 -45
-29 -49 -43 -15 -43 41 0 89 42 120 103 29 58 35 94 65 396 7 74 0 151 -14
151 -3 0 -5 -28 -5 -62z"/>
<path d="M7741 9141 c-14 -4 -27 -13 -29 -20 -3 -9 2 -11 14 -8 11 3 51 9 89
13 53 6 64 9 45 15 -31 9 -88 9 -119 0z"/>
<path d="M8090 9080 c-13 -8 -12 -10 5 -10 61 0 263 -24 346 -40 132 -26 221
-52 329 -95 92 -37 131 -42 68 -9 -59 31 -320 113 -423 133 -124 24 -304 36
-325 21z"/>
<path d="M7778 8993 c7 -3 16 -2 19 1 4 3 -2 6 -13 5 -11 0 -14 -3 -6 -6z"/>
<path d="M7800 8975 c-39 -11 -41 -13 -15 -13 17 0 46 6 65 13 45 17 10 17
-50 0z"/>
<path d="M7817 8938 c-32 -11 -57 -21 -55 -23 7 -8 104 18 118 31 18 18 9 16
-63 -8z"/>
<path d="M9000 8814 c0 -4 12 -21 27 -36 19 -20 24 -31 16 -39 -8 -8 -5 -20
12 -45 59 -87 40 -128 -65 -143 -73 -10 -80 -8 -80 21 0 16 -5 19 -22 14 -13
-3 -106 -6 -208 -7 -215 -2 -192 -14 45 -25 109 -5 163 -12 198 -25 81 -32
165 -23 245 26 36 22 40 40 15 75 -10 14 -18 42 -18 63 0 37 -2 40 -46 56 -26
10 -63 31 -83 46 -20 15 -36 24 -36 19z"/>
<path d="M8007 8708 c-42 -43 -77 -112 -63 -125 19 -19 124 131 113 160 -3 7
-24 -8 -50 -35z m23 -16 c0 -5 -11 -19 -25 -32 -29 -27 -33 -19 -7 15 17 25
32 32 32 17z"/>
<path d="M7730 7860 c0 -5 5 -10 10 -10 6 0 10 5 10 10 0 6 -4 10 -10 10 -5 0
-10 -4 -10 -10z"/>
<path d="M7975 7670 c3 -5 8 -10 11 -10 2 0 4 5 4 10 0 6 -5 10 -11 10 -5 0
-7 -4 -4 -10z"/>
<path d="M3301 7075 c-52 -14 -99 -29 -105 -35 -18 -18 60 -11 115 10 29 10
72 22 95 26 24 3 41 10 38 15 -8 14 -41 10 -143 -16z"/>
<path d="M3493 7071 c-91 -25 -124 -42 -158 -83 -83 -98 -70 -224 31 -288 105
-66 170 -67 87 0 -115 92 -141 151 -104 234 18 42 28 50 88 78 63 30 75 32
173 32 201 -1 357 -70 424 -188 48 -83 43 -124 -25 -201 -44 -50 -9 -48 41 3
76 75 65 155 -35 261 -100 106 -209 155 -368 166 -63 4 -98 1 -154 -14z"/>
<path d="M3900 7082 c0 -24 140 -45 154 -23 8 13 -20 21 -91 28 -41 4 -63 2
-63 -5z"/>
<path d="M3474 6919 c-8 -13 3 -121 16 -155 5 -13 21 -29 35 -36 21 -9 28 -8
45 7 24 21 20 65 -11 127 -21 41 -73 76 -85 57z m74 -79 c38 -56 22 -115 -20
-72 -25 24 -39 117 -17 110 8 -2 24 -19 37 -38z"/>
<path d="M3795 6901 c-3 -5 -1 -12 4 -16 7 -4 6 -14 -1 -30 -23 -52 20 -145
68 -145 35 0 47 38 33 97 -19 72 -81 129 -104 94z m72 -61 c18 -35 17 -100 -1
-100 -24 0 -46 42 -46 88 0 36 3 43 17 40 10 -2 23 -14 30 -28z"/>
<path d="M0 6791 c0 -12 5 -21 10 -21 6 0 10 6 10 14 0 8 -4 18 -10 21 -5 3
-10 -3 -10 -14z"/>
<path d="M770 6694 c0 -7 15 -25 33 -41 17 -16 56 -55 85 -86 28 -30 52 -52
52 -48 0 14 -169 187 -170 175z"/>
<path d="M3540 6553 c0 -9 9 -31 21 -49 17 -28 25 -32 48 -28 74 15 181 -53
181 -115 0 -27 -4 -31 -26 -31 -14 0 -46 14 -70 32 -44 31 -69 33 -44 2 22
-25 109 -66 130 -59 44 14 36 89 -16 140 -24 24 -56 41 -106 56 -40 12 -82 33
-95 45 -18 18 -23 20 -23 7z"/>
<path d="M980 6455 c0 -15 18 -40 24 -34 3 3 -1 14 -9 25 -8 10 -14 15 -15 9z"/>
<path d="M1707 6420 c-15 -16 -36 -32 -47 -35 -11 -4 -20 -11 -20 -16 0 -15
80 33 92 54 16 30 4 29 -25 -3z"/>
<path d="M1015 6390 c3 -5 8 -10 11 -10 2 0 4 5 4 10 0 6 -5 10 -11 10 -5 0
-7 -4 -4 -10z"/>
<path d="M1585 6340 c-3 -5 -2 -10 4 -10 5 0 13 5 16 10 3 6 2 10 -4 10 -5 0
-13 -4 -16 -10z"/>
<path d="M1585 6190 c-43 -4 -55 -8 -42 -14 26 -12 128 4 106 17 -2 1 -31 0
-64 -3z"/>
<path d="M3320 5864 c0 -6 18 -49 39 -95 21 -46 48 -117 60 -158 11 -40 22
-76 25 -78 3 -3 9 12 15 33 6 22 17 48 25 60 14 19 12 26 -28 85 -49 72 -135
170 -136 153z"/>
<path d="M62 5495 c0 -16 2 -22 5 -12 2 9 2 23 0 30 -3 6 -5 -1 -5 -18z"/>
<path d="M10639 3727 c-13 -12 -14 -25 -5 -80 10 -61 28 -98 41 -85 3 3 8 28
12 57 3 28 9 51 14 51 32 0 97 -138 98 -208 1 -41 38 -129 57 -136 8 -3 14
-12 14 -19 0 -17 47 -104 61 -112 17 -11 9 19 -16 64 -14 23 -25 48 -25 54 0
6 -9 29 -19 51 -10 23 -24 79 -31 126 -12 89 -49 192 -80 224 -24 25 -101 33
-121 13z"/>
<path d="M10694 3575 c-10 -33 -4 -60 15 -60 5 0 19 -11 31 -25 l21 -25 -4 36
c-6 42 -33 109 -44 109 -4 0 -13 -16 -19 -35z"/>
<path d="M11988 3016 c-40 -35 -97 -76 -126 -90 -59 -30 -121 -71 -317 -207
-71 -50 -173 -119 -225 -154 -53 -35 -104 -73 -114 -84 -18 -19 -17 -21 19
-58 21 -21 55 -65 78 -97 22 -33 55 -76 73 -96 19 -21 46 -64 61 -96 14 -33
44 -85 66 -117 42 -62 41 -62 115 -31 17 7 32 18 32 24 0 6 14 16 30 21 17 6
30 15 30 20 0 5 7 9 16 9 9 0 28 12 42 28 15 15 38 33 52 40 14 7 47 30 74 50
27 20 56 42 65 47 96 60 196 133 219 159 41 47 47 49 91 26 22 -11 53 -20 70
-20 21 0 42 -13 78 -48 29 -28 65 -52 89 -60 94 -28 174 -120 174 -200 0 -42
-12 -59 -45 -62 -42 -5 -55 0 -55 20 0 11 -5 19 -12 17 -6 -1 -16 12 -21 28
-15 49 -35 80 -52 83 -28 6 -33 -11 -19 -63 7 -27 16 -100 20 -162 6 -101 5
-117 -15 -162 -11 -27 -21 -67 -21 -88 0 -21 -9 -56 -21 -77 -11 -21 -26 -73
-34 -115 -7 -42 -23 -112 -35 -156 -15 -55 -23 -122 -27 -217 -3 -76 -9 -138
-12 -138 -4 0 -12 5 -19 12 -6 6 -14 9 -17 6 -8 -8 7 -68 17 -68 5 0 6 10 3
21 -5 15 -4 19 4 15 16 -10 14 -41 -4 -56 -10 -8 -15 -31 -15 -65 0 -38 -4
-55 -15 -59 -17 -6 -20 30 -6 79 6 22 4 34 -6 44 -9 8 -11 19 -7 30 13 26 5
95 -11 107 -22 16 -18 24 11 24 27 0 27 -1 7 48 -3 7 2 12 13 12 14 0 15 3 6
12 -7 7 -12 22 -12 35 0 35 -18 27 -22 -9 l-3 -33 -42 41 c-24 23 -43 49 -43
57 0 9 -9 21 -21 27 -11 6 -18 17 -16 23 2 6 -10 18 -27 27 -19 9 -31 23 -31
35 0 11 -10 30 -22 43 -29 28 -39 29 -19 1 8 -12 12 -28 9 -35 -3 -8 3 -26 12
-41 15 -23 15 -25 2 -20 -28 11 -27 -8 4 -73 114 -242 137 -432 70 -592 -18
-43 -31 -89 -29 -105 3 -25 9 -29 48 -37 38 -7 57 -4 108 14 34 13 60 25 58
27 -3 3 5 21 16 41 13 23 16 38 9 40 -15 5 -14 29 5 82 17 50 69 109 77 88 3
-7 6 -3 6 10 1 13 -2 21 -7 18 -16 -10 -37 21 -40 61 -3 34 0 44 17 55 14 9
21 23 20 43 l0 30 -11 -25 c-6 -16 -12 -20 -15 -12 -8 20 18 76 28 60 4 -7 10
-10 14 -7 3 3 -4 18 -16 34 -29 36 -36 111 -15 153 15 30 15 32 0 32 -16 0
-16 2 -1 18 11 12 14 30 10 65 -6 49 8 62 35 35 14 -14 16 -48 3 -48 -4 0 -8
-25 -7 -55 1 -77 18 -42 26 53 4 51 2 71 -6 68 -6 -2 -17 0 -25 5 -12 7 -12
12 -1 29 7 11 10 25 6 31 -3 6 -3 26 1 45 4 26 10 34 21 30 16 -6 19 9 4 19
-5 3 -10 19 -10 34 0 24 4 29 25 29 14 0 25 -6 25 -12 0 -6 8 4 16 22 9 17 21
32 26 32 6 0 5 7 -2 15 -7 8 -18 15 -25 15 -14 0 -25 22 -25 51 0 12 5 16 15
13 11 -4 15 0 15 16 0 13 8 24 20 27 16 4 19 12 16 55 -3 39 0 54 15 69 14 14
15 20 6 26 -7 4 -23 25 -36 46 -18 30 -20 37 -7 37 8 0 17 -4 20 -9 3 -4 21
-11 41 -14 40 -7 139 19 130 33 -4 6 0 10 8 10 18 0 27 22 26 63 l-1 32 -12
-35 c-12 -38 -36 -52 -36 -21 0 10 8 22 18 26 15 6 14 8 -7 16 -20 8 -22 14
-17 42 5 29 1 38 -32 70 -21 21 -41 34 -45 30 -4 -4 -13 8 -19 25 -11 29 -22
36 -55 35 -7 -1 -11 3 -8 7 5 8 -39 30 -62 30 -11 0 -14 6 -9 25 5 18 1 27
-15 35 -11 7 -27 9 -35 6 -8 -3 -13 -2 -10 3 6 10 -14 16 -86 26 -58 9 -60 21
-18 85 33 49 70 122 70 140 0 5 6 19 12 30 10 15 10 22 1 31 -8 8 -9 18 -2 30
8 15 6 17 -7 12 -14 -5 -15 -3 -5 15 9 17 8 22 -9 27 -17 5 -25 22 -22 46 2
10 -91 102 -115 116 -11 6 -39 17 -62 23 -24 6 -41 17 -41 25 0 21 -37 55 -59
55 -11 0 -53 -29 -93 -64z m81 5 c9 -6 10 -10 2 -16 -16 -9 -44 2 -36 15 8 12
16 12 34 1z m132 -76 c16 -9 50 -43 74 -76 37 -51 44 -67 43 -104 0 -26 -7
-50 -15 -57 -8 -6 -20 -25 -27 -42 -7 -17 -32 -55 -54 -85 -23 -30 -39 -57
-37 -60 3 -2 25 10 50 28 53 38 57 31 12 -22 -25 -29 -45 -41 -92 -53 -77 -19
-93 -34 -36 -34 23 0 41 -4 39 -9 -1 -5 -59 -46 -127 -92 -211 -143 -210 -142
-226 -129 -18 15 -20 61 -3 78 9 9 8 12 -6 12 -15 0 -16 3 -6 15 10 12 10 18
0 30 -10 12 -7 17 14 26 30 14 16 31 -19 24 -23 -5 -44 9 -63 44 -12 20 -12
25 0 32 18 12 34 11 72 -5 19 -8 37 -23 40 -33 12 -38 88 -80 124 -69 14 5 17
14 14 36 -2 17 -8 30 -12 30 -5 0 -10 10 -12 22 -3 22 -22 31 -90 43 -44 7
-49 20 -12 29 83 21 164 94 164 148 0 13 7 52 15 87 17 70 14 82 -13 58 -10
-9 -50 -32 -89 -51 -74 -36 -153 -113 -153 -148 0 -31 -19 -11 -26 28 -7 36
-36 64 -66 64 -67 0 38 86 208 171 123 61 224 90 195 56 -7 -10 -20 -17 -27
-17 -25 0 -16 -39 10 -46 28 -7 49 2 43 19 -2 7 2 24 10 40 15 31 40 34 84 12z
m-570 -301 c-2 -49 2 -65 20 -88 15 -19 18 -31 11 -38 -8 -8 -25 -2 -59 20
-26 16 -65 37 -85 46 -43 17 -48 31 -15 40 12 3 42 23 67 45 25 22 49 39 54
37 5 -1 9 -29 7 -62z m689 -4 c-6 -12 -14 -19 -17 -17 -2 3 1 15 7 27 6 12 14
19 17 17 2 -3 -1 -15 -7 -27z m-580 -96 c-18 -21 -24 -10 -9 18 8 14 14 18 17
10 2 -7 -2 -19 -8 -28z m-365 -167 c38 -20 -2 -18 -46 3 -43 20 -43 20 -9 14
19 -4 44 -11 55 -17z m88 -95 c16 -29 24 -52 19 -52 -5 0 -15 15 -22 33 -7 17
-23 43 -34 56 -15 16 -16 22 -6 19 8 -2 28 -28 43 -56z m1207 -57 c7 -8 8 -15
2 -15 -5 0 -15 7 -22 15 -7 8 -8 15 -2 15 5 0 15 -7 22 -15z m-555 -971 c17
-7 45 -65 45 -94 0 -10 6 -31 14 -47 23 -45 46 -132 45 -172 l0 -36 -13 35
c-7 19 -16 57 -20 83 -6 38 -41 124 -94 230 -4 9 1 9 23 1z m135 -136 c0 -18
-2 -20 -9 -8 -6 8 -7 18 -5 22 9 14 14 9 14 -14z m-20 -279 c0 -10 -4 -19 -10
-19 -5 0 -10 12 -10 26 0 14 4 23 10 19 6 -3 10 -15 10 -26z m65 -109 c6 -19
2 -56 -11 -102 -3 -11 -15 -18 -30 -18 -29 0 -28 -1 -7 64 9 28 18 57 19 64 5
19 22 14 29 -8z"/>
<path d="M12266 684 c-10 -25 1 -29 14 -5 6 12 7 21 1 21 -5 0 -12 -7 -15 -16z"/>
<path d="M5760 2955 c-36 -14 -41 -31 -13 -52 15 -12 15 -14 -1 -32 -22 -25
-14 -53 21 -77 l27 -17 -23 -8 c-24 -10 -20 -29 7 -29 12 0 13 -3 4 -12 -28
-28 0 -37 57 -17 32 11 42 29 16 29 -14 0 -14 30 0 76 2 7 -3 21 -12 33 -10
15 -13 33 -8 57 6 36 -7 65 -29 63 -6 -1 -27 -7 -46 -14z m45 -35 c4 -6 -5
-10 -19 -10 -14 0 -26 5 -26 10 0 6 9 10 19 10 11 0 23 -4 26 -10z m13 -86 c4
-29 -22 -37 -49 -15 -28 22 -17 43 19 39 19 -2 28 -10 30 -24z"/>
<path d="M5860 2690 c0 -5 7 -10 16 -10 8 0 12 5 9 10 -3 6 -10 10 -16 10 -5
0 -9 -4 -9 -10z"/>
<path d="M5828 2628 c-61 -32 -42 -45 31 -22 7 2 20 -1 28 -7 21 -18 27 -2 9
26 -19 29 -19 29 -68 3z"/>
<path d="M5832 2518 c-14 -14 -16 -58 -3 -58 5 0 11 10 13 23 3 23 25 27 61
12 12 -5 17 -3 17 8 0 27 -65 38 -88 15z"/>
<path d="M5882 2457 c-28 -14 -41 -26 -38 -36 2 -9 7 -28 10 -43 5 -23 14 -28
61 -38 56 -12 100 -7 57 6 -20 6 -22 11 -17 48 5 32 3 47 -12 63 l-18 21 -43
-21z m48 -27 c0 -5 -7 -10 -15 -10 -8 0 -15 5 -15 10 0 6 7 10 15 10 8 0 15
-4 15 -10z m-26 -26 c19 -7 21 -30 3 -37 -20 -8 -41 9 -34 27 7 18 9 18 31 10z"/>
<path d="M5943 2243 c-37 -19 -45 -38 -10 -27 29 9 77 33 77 39 0 10 -36 3
-67 -12z"/>
<path d="M5973 2207 c-45 -22 -57 -39 -22 -30 17 5 19 2 13 -21 -8 -32 8 -34
54 -6 36 22 42 35 12 27 -16 -4 -18 -1 -13 24 3 16 4 29 2 28 -2 0 -23 -10
-46 -22z"/>
<path d="M12510 2192 c0 -5 10 -17 22 -28 l21 -19 -18 28 c-18 28 -25 33 -25
19z"/>
<path d="M12733 2165 c-9 -10 -8 -14 8 -18 12 -3 19 0 19 8 0 20 -13 25 -27
10z"/>
<path d="M12560 2111 c0 -6 4 -13 10 -16 6 -3 7 1 4 9 -7 18 -14 21 -14 7z"/>
<path d="M6030 2053 c-36 -34 -25 -44 20 -18 41 23 43 18 15 -31 -28 -48 -27
-67 1 -43 15 12 16 11 10 -9 -10 -32 5 -27 44 13 35 36 36 54 2 36 -29 -15
-34 -14 -24 7 14 28 9 54 -13 66 -17 11 -25 8 -55 -21z"/>
<path d="M12354 2015 c22 -17 46 -20 46 -6 0 10 -25 21 -48 21 -15 -1 -14 -3
2 -15z"/>
<path d="M12347 1978 c-6 -20 6 -37 26 -38 12 0 8 37 -7 49 -11 9 -15 7 -19
-11z"/>
<path d="M6153 1963 c-11 -10 -25 -30 -31 -45 -10 -25 -9 -28 8 -28 11 0 20 7
20 15 0 9 9 15 25 15 29 0 34 16 8 23 -11 3 -5 5 12 6 29 2 29 2 11 16 -25 19
-30 19 -53 -2z"/>
<path d="M12325 1921 c-3 -6 4 -15 16 -22 17 -9 23 -8 30 2 4 7 5 17 3 21 -7
11 -42 10 -49 -1z"/>
<path d="M6252 1870 c-12 -19 -22 -37 -22 -40 0 -8 54 -5 68 3 7 5 12 3 12 -7
0 -25 45 -66 72 -66 14 0 38 10 53 22 l27 21 -7 -24 c-4 -13 -10 -30 -12 -36
-3 -8 3 -13 14 -13 10 0 25 -6 32 -12 11 -11 12 -9 6 10 -5 18 -1 29 15 44 30
28 21 42 -29 46 -35 3 -45 -1 -62 -22 -32 -41 -83 -30 -60 12 6 11 25 23 43
27 l33 8 -29 4 c-16 3 -33 0 -39 -6 -20 -20 -30 -12 -23 19 7 36 -11 40 -40 9
l-19 -21 -6 28 -5 29 -22 -35z m247 -86 c-14 -18 -24 -11 -15 11 3 9 11 13 16
10 8 -5 7 -11 -1 -21z"/>
<path d="M12340 1870 c20 -13 33 -13 25 0 -3 6 -14 10 -23 10 -15 0 -15 -2 -2
-10z"/>
<path d="M12580 1870 c0 -5 5 -10 11 -10 5 0 7 5 4 10 -3 6 -8 10 -11 10 -2 0
-4 -4 -4 -10z"/>
<path d="M12321 1817 c2 -24 -1 -49 -5 -56 -5 -7 -3 -18 3 -24 15 -15 14 -27
-3 -21 -22 9 -16 -45 7 -61 24 -17 35 -12 18 9 -10 12 -9 21 5 48 22 42 28 89
12 101 -10 7 -10 10 0 14 10 4 9 8 -5 19 -29 22 -35 17 -32 -29z"/>
<path d="M6540 1764 c-6 -14 -10 -35 -10 -47 1 -20 2 -20 11 -4 13 21 29 22
29 1 0 -9 5 -14 12 -12 15 5 39 76 28 83 -5 3 -11 -4 -15 -15 -8 -26 -25 -26
-25 0 0 28 -19 25 -30 -6z"/>
<path d="M6636 1748 c-11 -33 -16 -68 -11 -68 6 0 35 63 35 75 0 11 -21 5 -24
-7z"/>
<path d="M6680 1725 c-6 -14 -10 -36 -10 -48 1 -22 1 -22 15 -3 15 20 15 20
29 0 14 -18 15 -18 26 10 6 16 9 39 7 50 -4 20 -5 20 -12 -1 -8 -26 -25 -31
-25 -9 0 27 -20 27 -30 1z"/>
<path d="M6774 1706 c-25 -39 -15 -70 22 -74 27 -3 33 1 42 27 6 17 7 31 2 31
-21 0 -38 -13 -33 -26 3 -8 -1 -14 -11 -14 -24 0 -19 20 11 52 26 27 26 28 5
28 -12 0 -29 -11 -38 -24z"/>
<path d="M6460 1665 c-10 -12 -10 -15 3 -15 19 0 31 16 18 24 -5 3 -14 -1 -21
-9z"/>
<path d="M11810 1650 c6 -11 13 -20 16 -20 2 0 0 9 -6 20 -6 11 -13 20 -16 20
-2 0 0 -9 6 -20z"/>
<path d="M12280 1580 c-13 -9 -13 -11 0 -20 8 -5 26 -10 39 -10 23 0 24 1 6
20 -21 23 -24 24 -45 10z"/>
<path d="M12502 1530 c0 -14 2 -19 5 -12 2 6 2 18 0 25 -3 6 -5 1 -5 -13z"/>
<path d="M12276 1527 c3 -8 -2 -20 -11 -27 -8 -7 -15 -24 -15 -39 1 -22 2 -24
11 -8 8 13 14 15 30 7 26 -14 24 -2 -3 20 l-23 19 23 -6 c18 -4 21 -2 16 11
-4 11 0 16 12 17 18 0 17 1 -1 9 -30 13 -45 12 -39 -3z"/>
<path d="M12486 1475 c-3 -9 -6 -24 -5 -33 0 -9 5 -4 10 12 9 32 6 48 -5 21z"/>
<path d="M12242 1230 c0 -14 2 -19 5 -12 2 6 2 18 0 25 -3 6 -5 1 -5 -13z"/>
<path d="M12442 980 c0 -14 2 -19 5 -12 2 6 2 18 0 25 -3 6 -5 1 -5 -13z"/>
</g>
</svg>
